<svg width="20" height="25" viewBox="0 0 20 25" fill="none" xmlns="http://www.w3.org/2000/svg">
<path d="M18.7267 13.4084C16.8951 8.64842 10.3734 8.39175 11.9484 1.47342C12.0651 0.960082 11.5167 0.563416 11.0734 0.831749C6.83841 3.32842 3.79341 8.33342 6.34841 14.8901C6.55841 15.4267 5.92841 15.9284 5.47341 15.5784C3.36175 13.9801 3.14008 11.6817 3.32675 10.0367C3.39675 9.43008 2.60341 9.13842 2.26508 9.64008C1.47175 10.8534 0.666748 12.8134 0.666748 15.7651C1.11008 22.2984 6.62841 24.3051 8.61175 24.5617C11.4467 24.9234 14.5151 24.3984 16.7201 22.3801C19.1467 20.1284 20.0334 16.5351 18.7267 13.4084ZM7.90008 19.2767C9.58008 18.8684 10.4434 17.6551 10.6767 16.5817C11.0617 14.9134 9.55675 13.2801 10.5717 10.6434C10.9567 12.8251 14.3867 14.1901 14.3867 16.5701C14.4801 19.5217 11.2834 22.0534 7.90008 19.2767Z" fill="#FF8A00"/>
</svg>
