<svg width="130" height="128" viewBox="0 0 130 128" fill="none" xmlns="http://www.w3.org/2000/svg">
<g opacity="0.6">
<path opacity="0.1" d="M64.8499 96.6344L32.4396 65.8466V35.1761L64.8499 65.8798L129.588 4.53223V35.2359L64.8499 96.6344Z" fill="white"/>
<path opacity="0.1" d="M64.8499 96.6355L32.4396 65.8477V35.1772L64.8499 65.8809V96.6355Z" fill="white"/>
<path opacity="0.09" d="M65.429 35.3226V4.68661L97.941 -26V4.68661L65.429 35.3226Z" fill="white"/>
<path opacity="0.18" d="M0.325897 187.347V156.931L64.8688 96.2585V126.624L0.325897 187.347Z" fill="white"/>
<g opacity="0.07">
<path d="M0 127.095V96.4586L32.512 65.772V96.4586L0 127.095Z" fill="white"/>
</g>
<g opacity="0.3">
<path d="M97.2614 187.29L64.8511 156.841V126.508L97.2614 156.874L162 96.2012V126.567L97.2614 187.29Z" fill="white"/>
<path d="M97.6546 126.471V95.8346L130.265 65.1479V95.8346L97.6546 126.471Z" fill="white"/>
</g>
</g>
</svg>
