<svg width="448" height="280" viewBox="0 0 448 280" fill="none" xmlns="http://www.w3.org/2000/svg">
<path d="M214.865 280.162C333.532 280.162 429.731 270.301 429.731 258.138C429.731 245.974 333.532 236.113 214.865 236.113C96.1985 236.113 0 245.974 0 258.138C0 270.301 96.1985 280.162 214.865 280.162Z" fill="#49B3FF"/>
<path d="M375.247 37.8947C375.247 54.8988 388.989 68.664 405.965 68.664C422.941 68.664 436.683 54.8988 436.683 37.8947C436.683 20.8907 422.941 7.12549 405.965 7.12549C388.989 7.12549 375.247 20.8907 375.247 37.8947ZM391.576 37.8947C391.576 29.9595 398.043 23.4818 405.965 23.4818C413.887 23.4818 420.354 29.9595 420.354 37.8947C420.354 45.8299 413.887 52.3077 405.965 52.3077C398.043 52.3077 391.576 45.8299 391.576 37.8947Z" fill="#DFF7FE"/>
<path d="M400.145 8.42105H411.947L411.3 0H400.791L400.145 8.42105Z" fill="#DFF7FE"/>
<path d="M422.617 12.3078L431.024 20.7288L436.521 14.413L429.084 6.96362L422.617 12.3078Z" fill="#DFF7FE"/>
<path d="M435.713 31.0931V43.0769L444.12 42.4292V31.7409L435.713 31.0931Z" fill="#DFF7FE"/>
<path d="M431.671 53.7651L423.426 62.1862L429.731 67.5303L437.168 60.0809L431.671 53.7651Z" fill="#DFF7FE"/>
<path d="M413.078 66.8826H401.114L401.761 75.3036H412.27L413.078 66.8826Z" fill="#DFF7FE"/>
<path d="M390.444 62.834L382.037 54.413L376.702 60.8907L384.139 68.3401L390.444 62.834Z" fill="#DFF7FE"/>
<path d="M377.348 44.0486V32.2267L368.941 32.8745V43.4008L377.348 44.0486Z" fill="#DFF7FE"/>
<path d="M381.39 21.5385L389.798 13.1174L383.331 7.61133L375.894 15.0607L381.39 21.5385Z" fill="#DFF7FE"/>
<path d="M291.823 116.113C291.823 136.518 308.314 153.036 328.685 153.036C349.056 153.036 365.546 136.518 365.546 116.113C365.546 95.7085 349.056 79.1903 328.685 79.1903C308.314 79.1903 291.823 95.7085 291.823 116.113ZM299.583 116.113C299.583 100.081 312.517 87.1255 328.523 87.1255C344.529 87.1255 357.463 100.081 357.463 116.113C357.463 132.146 344.529 145.101 328.523 145.101C312.679 145.101 299.583 132.146 299.583 116.113ZM291.823 116.113C291.823 136.518 308.314 153.036 328.685 153.036C349.056 153.036 365.546 136.518 365.546 116.113C365.546 95.7085 349.056 79.1903 328.685 79.1903C308.314 79.1903 291.823 95.7085 291.823 116.113ZM299.583 116.113C299.583 100.081 312.517 87.1255 328.523 87.1255C344.529 87.1255 357.463 100.081 357.463 116.113C357.463 132.146 344.529 145.101 328.523 145.101C312.679 145.101 299.583 132.146 299.583 116.113ZM266.602 116.113C266.602 150.445 294.41 178.3 328.685 178.3C362.96 178.3 390.768 150.445 390.768 116.113C390.768 81.7814 362.96 53.9271 328.685 53.9271C294.41 53.9271 266.602 81.7814 266.602 116.113ZM288.266 116.113C288.266 93.7652 306.373 75.6275 328.685 75.6275C350.996 75.6275 369.103 93.7652 369.103 116.113C369.103 138.462 350.996 156.599 328.685 156.599C306.373 156.437 288.266 138.3 288.266 116.113ZM291.823 116.113C291.823 136.518 308.314 153.036 328.685 153.036C349.056 153.036 365.546 136.518 365.546 116.113C365.546 95.7085 349.056 79.1903 328.685 79.1903C308.314 79.1903 291.823 95.7085 291.823 116.113ZM299.583 116.113C299.583 100.081 312.517 87.1255 328.523 87.1255C344.529 87.1255 357.463 100.081 357.463 116.113C357.463 132.146 344.529 145.101 328.523 145.101C312.679 145.101 299.583 132.146 299.583 116.113Z" fill="#DBE1FC"/>
<path d="M321.409 55.0607H335.475L334.181 40.8097H322.703L321.409 55.0607Z" fill="#DBE1FC"/>
<path d="M352.774 59.5951L365.062 66.7206L371.044 53.6032L361.181 47.9352L352.774 59.5951Z" fill="#DBE1FC"/>
<path d="M377.834 79.1903L384.948 91.498L396.427 83.2389L390.768 73.3604L377.834 79.1903Z" fill="#DBE1FC"/>
<path d="M389.636 108.826V122.915L403.701 121.619V110.121L389.636 108.826Z" fill="#DBE1FC"/>
<path d="M385.109 140.243L377.995 152.55L390.929 158.542L396.588 148.664L385.109 140.243Z" fill="#DBE1FC"/>
<path d="M365.385 165.344L353.098 172.47L361.505 183.968L371.367 178.3L365.385 165.344Z" fill="#DBE1FC"/>
<path d="M335.96 177.166H321.732L323.187 191.255H334.505L335.96 177.166Z" fill="#DBE1FC"/>
<path d="M304.434 172.632L292.146 165.506L286.326 178.462L296.188 184.13L304.434 172.632Z" fill="#DBE1FC"/>
<path d="M279.535 152.874L272.422 140.567L260.781 148.988L266.44 158.704L279.535 152.874Z" fill="#DBE1FC"/>
<path d="M267.733 123.401V109.15L253.506 110.607V121.943L267.733 123.401Z" fill="#DBE1FC"/>
<path d="M272.26 91.8219L279.373 79.5142L266.278 73.6842L260.619 83.5627L272.26 91.8219Z" fill="#DBE1FC"/>
<path d="M291.822 66.8826L304.11 59.7571L295.864 48.0972L286.002 53.7652L291.822 66.8826Z" fill="#DBE1FC"/>
<path d="M175.902 62.3483C175.902 84.2106 193.525 101.862 215.351 101.862C237.177 101.862 254.799 84.2106 254.799 62.3483C254.799 40.4859 237.177 22.8341 215.351 22.8341C193.525 22.996 175.902 40.6479 175.902 62.3483ZM196.92 62.3483C196.92 52.1459 205.165 43.8867 215.351 43.8867C225.536 43.8867 233.782 52.1459 233.782 62.3483C233.782 72.5507 225.536 80.8098 215.351 80.8098C205.004 80.8098 196.92 72.5507 196.92 62.3483Z" fill="#DFF7FE"/>
<path d="M207.591 24.6153H222.788L221.98 13.7651H208.561L207.591 24.6153Z" fill="#DFF7FE"/>
<path d="M236.53 29.6357L247.201 40.4859L254.153 32.2268L244.614 22.6721L236.53 29.6357Z" fill="#DFF7FE"/>
<path d="M253.345 53.7651V68.8259L264.015 68.0161V54.5749L253.345 53.7651Z" fill="#DFF7FE"/>
<path d="M248.171 82.5911L237.5 93.2793L245.584 100.405L255.123 90.8502L248.171 82.5911Z" fill="#DFF7FE"/>
<path d="M224.243 99.4331H209.046L209.854 110.121H223.273L224.243 99.4331Z" fill="#DFF7FE"/>
<path d="M195.303 94.2511L184.633 83.5629L177.681 91.822L187.219 101.377L195.303 94.2511Z" fill="#DFF7FE"/>
<path d="M138.556 57.166C146.316 57.166 152.621 51.0121 152.621 43.2389C152.621 35.4656 146.478 29.1498 138.717 29.1498C130.957 29.1498 124.652 35.3036 124.652 43.0769C124.49 50.6882 130.795 57.004 138.556 57.166ZM126.268 42.915C126.268 36.1133 131.927 30.6073 138.717 30.6073C145.508 30.6073 151.005 36.2753 151.005 43.0769C151.005 49.8785 145.346 55.3846 138.556 55.3846C131.765 55.3846 126.268 49.8785 126.268 42.915ZM138.556 57.166C146.316 57.166 152.621 51.0121 152.621 43.2389C152.621 35.4656 146.478 29.1498 138.717 29.1498C130.957 29.1498 124.652 35.3036 124.652 43.0769C124.49 50.6882 130.795 57.004 138.556 57.166ZM126.268 42.915C126.268 36.1133 131.927 30.6073 138.717 30.6073C145.508 30.6073 151.005 36.2753 151.005 43.0769C151.005 49.8785 145.346 55.3846 138.556 55.3846C131.765 55.3846 126.268 49.8785 126.268 42.915ZM138.556 57.166C146.316 57.166 152.621 51.0121 152.621 43.2389C152.621 35.4656 146.478 29.1498 138.717 29.1498C130.957 29.1498 124.652 35.3036 124.652 43.0769C124.49 50.6882 130.795 57.004 138.556 57.166ZM126.268 42.915C126.268 36.1133 131.927 30.6073 138.717 30.6073C145.508 30.6073 151.005 36.2753 151.005 43.0769C151.005 49.8785 145.346 55.3846 138.556 55.3846C131.765 55.3846 126.268 49.8785 126.268 42.915ZM138.394 72.7125C154.723 72.8745 168.142 59.5951 168.142 43.2389C168.304 26.8826 155.046 13.4413 138.717 13.4413C122.388 13.2793 109.131 26.5587 108.969 42.915C108.808 59.2712 122.065 72.5506 138.394 72.7125ZM122.388 42.915C122.388 34.0081 129.825 26.7206 138.717 26.7206C147.609 26.7206 154.885 34.17 154.885 43.0769C154.885 51.9838 147.448 59.2712 138.556 59.2712C129.502 59.2712 122.227 51.9838 122.388 42.915ZM124.49 42.915C124.49 50.6882 130.634 57.004 138.394 57.004C146.154 57.004 152.46 50.8502 152.46 43.0769C152.46 35.3036 146.316 28.9878 138.556 28.9878C130.795 28.9878 124.49 35.1417 124.49 42.915ZM126.268 42.915C126.268 36.1133 131.927 30.6073 138.717 30.6073C145.508 30.6073 151.005 36.2753 151.005 43.0769C151.005 49.8785 145.346 55.3846 138.556 55.3846C131.765 55.3846 126.268 49.8785 126.268 42.915ZM138.556 57.166C146.316 57.166 152.621 51.0121 152.621 43.2389C152.621 35.4656 146.478 29.1498 138.717 29.1498C130.957 29.1498 124.652 35.3036 124.652 43.0769C124.49 50.6882 130.795 57.004 138.556 57.166ZM126.268 42.915C126.268 36.1133 131.927 30.6073 138.717 30.6073C145.508 30.6073 151.005 36.2753 151.005 43.0769C151.005 49.8785 145.346 55.3846 138.556 55.3846C131.765 55.3846 126.268 49.8785 126.268 42.915ZM138.556 57.166C146.316 57.166 152.621 51.0121 152.621 43.2389C152.621 35.4656 146.478 29.1498 138.717 29.1498C130.957 29.1498 124.652 35.3036 124.652 43.0769C124.49 50.6882 130.795 57.004 138.556 57.166ZM126.268 42.915C126.268 36.1133 131.927 30.6073 138.717 30.6073C145.508 30.6073 151.005 36.2753 151.005 43.0769C151.005 49.8785 145.346 55.3846 138.556 55.3846C131.765 55.3846 126.268 49.8785 126.268 42.915Z" fill="#DBE1FC"/>
<path d="M133.059 14.5749L144.376 14.7369L143.891 6.63973L133.705 6.47778L133.059 14.5749Z" fill="#DBE1FC"/>
<path d="M154.723 18.6235L162.645 26.7207L167.98 20.5669L160.866 13.2794L154.723 18.6235Z" fill="#DBE1FC"/>
<path d="M167.172 36.5992V48.0972L175.256 47.4495V37.409L167.172 36.5992Z" fill="#DBE1FC"/>
<path d="M163.292 58.2997L155.208 66.3968L161.19 71.741L168.465 64.6155L163.292 58.2997Z" fill="#DBE1FC"/>
<path d="M145.184 70.9312L133.705 70.7693L134.352 78.8665L144.537 79.0284L145.184 70.9312Z" fill="#DBE1FC"/>
<path d="M123.52 66.8827L115.436 58.7855L110.263 64.9394L117.376 72.2268L123.52 66.8827Z" fill="#DBE1FC"/>
<path d="M110.909 48.7451L111.071 37.4091L102.987 38.0568V48.0973L110.909 48.7451Z" fill="#DBE1FC"/>
<path d="M114.951 27.2066L123.035 19.1094L116.891 13.7653L109.777 20.8908L114.951 27.2066Z" fill="#DBE1FC"/>
<path d="M178.489 68.664V53.4413L167.818 54.251V67.8542L178.489 68.664Z" fill="#DFF7FE"/>
<path d="M36.8622 105.101C41.3891 105.263 45.1076 101.7 45.1076 97.1659C45.2693 92.6315 41.7124 88.9068 37.1855 88.9068C32.6586 88.7448 28.9401 92.3076 28.9401 96.842C28.9401 101.214 32.497 104.939 36.8622 105.101ZM29.9102 96.842C30.0719 92.9554 33.3053 89.7165 37.1855 89.8784C41.0657 90.0404 44.2992 93.2793 44.1375 97.1659C43.9759 101.053 40.7424 104.291 36.8622 104.129C32.982 103.968 29.9102 100.729 29.9102 96.842ZM36.8622 105.101C41.3891 105.263 45.1076 101.7 45.1076 97.1659C45.2693 92.6315 41.7124 88.9068 37.1855 88.9068C32.6586 88.7448 28.9401 92.3076 28.9401 96.842C28.9401 101.214 32.497 104.939 36.8622 105.101ZM29.9102 96.842C30.0719 92.9554 33.3053 89.7165 37.1855 89.8784C41.0657 90.0404 44.2992 93.2793 44.1375 97.1659C43.9759 101.053 40.7424 104.291 36.8622 104.129C32.982 103.968 29.9102 100.729 29.9102 96.842ZM36.8622 105.101C41.3891 105.263 45.1076 101.7 45.1076 97.1659C45.2693 92.6315 41.7124 88.9068 37.1855 88.9068C32.6586 88.7448 28.9401 92.3076 28.9401 96.842C28.9401 101.214 32.497 104.939 36.8622 105.101ZM29.9102 96.842C30.0719 92.9554 33.3053 89.7165 37.1855 89.8784C41.0657 90.0404 44.2992 93.2793 44.1375 97.1659C43.9759 101.053 40.7424 104.291 36.8622 104.129C32.982 103.968 29.9102 100.729 29.9102 96.842ZM36.7005 114.17C46.0776 114.332 53.9997 106.883 54.1614 97.4898C54.323 88.0971 46.886 80.1618 37.5089 79.9999C28.1318 79.838 20.2097 87.2874 20.048 96.6801C19.7247 106.073 27.3234 113.846 36.7005 114.17ZM27.8084 96.842C27.9701 91.6598 32.1736 87.6112 37.3472 87.6112C42.5208 87.7732 46.5627 91.9837 46.5627 97.1659C46.401 102.348 42.1974 106.397 37.0239 106.397C31.6886 106.235 27.6467 101.862 27.8084 96.842ZM28.9401 96.842C28.7785 101.376 32.3353 105.101 36.8622 105.101C41.3891 105.263 45.1076 101.7 45.1076 97.1659C45.2693 92.6315 41.7124 88.9068 37.1855 88.9068C32.8203 88.7448 29.1018 92.3076 28.9401 96.842ZM29.9102 96.842C30.0719 92.9554 33.3053 89.7165 37.1855 89.8784C41.0657 90.0404 44.2992 93.2793 44.1375 97.1659C43.9759 101.053 40.7424 104.291 36.8622 104.129C32.982 103.968 29.9102 100.729 29.9102 96.842ZM36.8622 105.101C41.3891 105.263 45.1076 101.7 45.1076 97.1659C45.2693 92.6315 41.7124 88.9068 37.1855 88.9068C32.6586 88.7448 28.9401 92.3076 28.9401 96.842C28.9401 101.214 32.497 104.939 36.8622 105.101ZM29.9102 96.842C30.0719 92.9554 33.3053 89.7165 37.1855 89.8784C41.0657 90.0404 44.2992 93.2793 44.1375 97.1659C43.9759 101.053 40.7424 104.291 36.8622 104.129C32.982 103.968 29.9102 100.729 29.9102 96.842ZM36.8622 105.101C41.3891 105.263 45.1076 101.7 45.1076 97.1659C45.2693 92.6315 41.7124 88.9068 37.1855 88.9068C32.6586 88.7448 28.9401 92.3076 28.9401 96.842C28.9401 101.214 32.497 104.939 36.8622 105.101ZM29.9102 96.842C30.0719 92.9554 33.3053 89.7165 37.1855 89.8784C41.0657 90.0404 44.2992 93.2793 44.1375 97.1659C43.9759 101.053 40.7424 104.291 36.8622 104.129C32.982 103.968 29.9102 100.729 29.9102 96.842Z" fill="#DBE1FC"/>
<path d="M34.1133 80.4858L40.7419 80.6478L40.5803 75.9514H34.5983L34.1133 80.4858Z" fill="#DBE1FC"/>
<path d="M46.5625 83.077L51.0894 87.7733L54.3229 84.3725L50.281 80.162L46.5625 83.077Z" fill="#DBE1FC"/>
<path d="M53.6763 93.6031L53.5146 100.243L58.2032 99.9189L58.3649 94.089L53.6763 93.6031Z" fill="#DBE1FC"/>
<path d="M51.0899 106.073L46.4014 110.607L49.7965 113.684L54.1617 109.636L51.0899 106.073Z" fill="#DBE1FC"/>
<path d="M40.5808 113.198L33.9521 113.036L34.2755 117.571L40.0958 117.733L40.5808 113.198Z" fill="#DBE1FC"/>
<path d="M28.1319 110.607L23.605 105.911L20.5332 109.312L24.5751 113.522L28.1319 110.607Z" fill="#DBE1FC"/>
<path d="M21.1798 100.081L21.3414 93.4413L16.6529 93.7652L16.4912 99.5951L21.1798 100.081Z" fill="#DBE1FC"/>
<path d="M23.6045 87.6113L28.4547 83.0769L24.8979 79.838L20.6943 83.8866L23.6045 87.6113Z" fill="#DBE1FC"/>
<path d="M80.1902 74.332C86.1722 72.0648 89.244 65.2631 86.9806 59.2712C84.7171 53.2793 77.9268 50.2024 71.9448 52.4696C65.9629 54.7368 62.8911 61.5384 65.1545 67.5304C67.4179 73.5223 74.2083 76.5992 80.1902 74.332ZM66.4479 67.0445C64.3461 61.7004 67.0946 55.8704 72.2682 53.7652C77.6034 51.6599 83.4237 54.4129 85.5255 59.7571C87.6273 65.1012 84.8788 70.9312 79.5435 73.0364C74.3699 74.9797 68.5497 72.3887 66.4479 67.0445ZM80.1902 74.332C86.1722 72.0648 89.244 65.2631 86.9806 59.2712C84.7171 53.2793 77.9268 50.2024 71.9448 52.4696C65.9629 54.7368 62.8911 61.5384 65.1545 67.5304C67.4179 73.5223 74.2083 76.5992 80.1902 74.332ZM66.4479 67.0445C64.3461 61.7004 67.0946 55.8704 72.2682 53.7652C77.6034 51.6599 83.4237 54.4129 85.5255 59.7571C87.6273 65.1012 84.8788 70.9312 79.5435 73.0364C74.3699 74.9797 68.5497 72.3887 66.4479 67.0445ZM80.1902 74.332C86.1722 72.0648 89.244 65.2631 86.9806 59.2712C84.7171 53.2793 77.9268 50.2024 71.9448 52.4696C65.9629 54.7368 62.8911 61.5384 65.1545 67.5304C67.4179 73.5223 74.2083 76.5992 80.1902 74.332ZM66.4479 67.0445C64.3461 61.7004 67.0946 55.8704 72.2682 53.7652C77.6034 51.6599 83.4237 54.4129 85.5255 59.7571C87.6273 65.1012 84.8788 70.9312 79.5435 73.0364C74.3699 74.9797 68.5497 72.3887 66.4479 67.0445ZM84.8788 86.4777C97.6511 81.6194 103.956 67.3684 99.1061 54.5749C94.2559 41.7814 80.0286 35.4656 67.2563 40.3239C54.484 45.1822 48.1787 59.4332 53.0289 72.2267C57.8791 84.8583 72.1065 91.336 84.8788 86.4777ZM63.3761 68.1781C60.6276 61.2146 64.1845 53.4413 71.1365 50.6882C78.0885 48.0971 85.8488 51.498 88.5973 58.4615C91.3458 65.4251 87.7889 73.1984 80.8369 75.9514C73.8849 78.7044 66.1245 75.1417 63.3761 68.1781ZM65.1545 67.5304C67.4179 73.5223 74.2083 76.5992 80.1902 74.332C86.1722 72.0648 89.244 65.2631 86.9806 59.2712C84.7171 53.2793 77.9268 50.2024 71.9448 52.4696C65.8012 54.7368 62.7294 61.5384 65.1545 67.5304ZM66.4479 67.0445C64.3461 61.7004 67.0946 55.8704 72.2682 53.7652C77.6034 51.6599 83.4237 54.4129 85.5255 59.7571C87.6273 65.1012 84.8788 70.9312 79.5435 73.0364C74.3699 74.9797 68.5497 72.3887 66.4479 67.0445ZM80.1902 74.332C86.1722 72.0648 89.244 65.2631 86.9806 59.2712C84.7171 53.2793 77.9268 50.2024 71.9448 52.4696C65.9629 54.7368 62.8911 61.5384 65.1545 67.5304C67.4179 73.5223 74.2083 76.5992 80.1902 74.332ZM66.4479 67.0445C64.3461 61.7004 67.0946 55.8704 72.2682 53.7652C77.6034 51.6599 83.4237 54.4129 85.5255 59.7571C87.6273 65.1012 84.8788 70.9312 79.5435 73.0364C74.3699 74.9797 68.5497 72.3887 66.4479 67.0445ZM80.1902 74.332C86.1722 72.0648 89.244 65.2631 86.9806 59.2712C84.7171 53.2793 77.9268 50.2024 71.9448 52.4696C65.9629 54.7368 62.8911 61.5384 65.1545 67.5304C67.4179 73.5223 74.2083 76.5992 80.1902 74.332ZM66.4479 67.0445C64.3461 61.7004 67.0946 55.8704 72.2682 53.7652C77.6034 51.6599 83.4237 54.4129 85.5255 59.7571C87.6273 65.1012 84.8788 70.9312 79.5435 73.0364C74.3699 74.9797 68.5497 72.3887 66.4479 67.0445Z" fill="#DFF7FE"/>
<path d="M63.2145 42.9149L71.9449 39.5141L69.0348 33.5222L61.2744 36.5991L63.2145 42.9149Z" fill="#DFF7FE"/>
<path d="M81.1611 39.5141L89.7299 43.4008L91.9933 37.085L84.3946 33.5222L81.1611 39.5141Z" fill="#DFF7FE"/>
<path d="M96.3584 49.7164L99.7536 58.6233L105.736 55.7083L102.664 47.9351L96.3584 49.7164Z" fill="#DFF7FE"/>
<path d="M99.7532 67.8541L95.873 76.4371L102.178 78.7043L105.735 70.931L99.7532 67.8541Z" fill="#DFF7FE"/>
<path d="M89.5679 82.9149L80.6758 86.3157L83.5859 92.4696L91.3463 89.3926L89.5679 82.9149Z" fill="#DFF7FE"/>
<path d="M71.4601 86.4777L62.8914 82.5911L60.6279 88.9069L68.3883 92.3077L71.4601 86.4777Z" fill="#DFF7FE"/>
<path d="M56.4245 76.1132L53.0294 67.3683L46.8857 70.2833L49.9576 78.0565L56.4245 76.1132Z" fill="#DFF7FE"/>
<path d="M52.8681 58.1376L56.7483 49.5546L50.443 47.2874L47.0479 54.8987L52.8681 58.1376Z" fill="#DFF7FE"/>
<path d="M183.663 41.4576L194.333 30.6074L186.25 23.6438L176.711 33.1985L183.663 41.4576Z" fill="#DFF7FE"/>
<path d="M36.0537 75.7896C36.8621 75.7896 37.6705 75.7896 38.4788 75.9515" stroke="#49B3FF" stroke-miterlimit="10"/>
<path d="M43.3291 76.7612C54.9697 80.4859 55.9397 93.1175 74.3706 93.1175C97.4901 93.1175 102.664 73.5223 102.664 47.1256C102.664 24.6154 116.406 6.47778 138.717 6.47778C164.262 6.47778 175.74 26.5588 175.74 42.915C175.74 74.0081 176.711 108.502 213.411 108.502C271.775 108.502 260.458 40.3239 328.361 40.3239C377.349 40.3239 374.923 75.6276 406.935 75.6276C435.713 75.6276 442.18 52.3077 443.635 41.9434" stroke="#49B3FF" stroke-miterlimit="10" stroke-dasharray="2.99 2.99"/>
<path d="M443.958 39.5142C444.12 38.0567 444.12 37.0851 444.12 37.0851" stroke="#49B3FF" stroke-miterlimit="10"/>
<path d="M328.684 43.077C330.738 43.077 332.403 41.4094 332.403 39.3523C332.403 37.2952 330.738 35.6276 328.684 35.6276C326.631 35.6276 324.966 37.2952 324.966 39.3523C324.966 41.4094 326.631 43.077 328.684 43.077Z" fill="#49B3FF"/>
<path d="M444.12 40.8097C446.174 40.8097 447.838 39.1421 447.838 37.085C447.838 35.028 446.174 33.3604 444.12 33.3604C442.066 33.3604 440.401 35.028 440.401 37.085C440.401 39.1421 442.066 40.8097 444.12 40.8097Z" fill="#49B3FF"/>
<path d="M138.718 8.58294C140.771 8.58294 142.436 6.91533 142.436 4.85824C142.436 2.80115 140.771 1.13354 138.718 1.13354C136.664 1.13354 134.999 2.80115 134.999 4.85824C134.999 6.91533 136.664 8.58294 138.718 8.58294Z" fill="#49B3FF"/>
<path d="M53.6755 79.8381C55.7292 79.8381 57.3941 78.1705 57.3941 76.1134C57.3941 74.0563 55.7292 72.3887 53.6755 72.3887C51.6219 72.3887 49.957 74.0563 49.957 76.1134C49.957 78.1705 51.6219 79.8381 53.6755 79.8381Z" fill="#49B3FF"/>
<path d="M141.465 222.51L129.663 259.433H123.843L130.31 221.215L141.465 222.51Z" fill="#FF8A00"/>
<path d="M255.769 222.51L267.571 259.433H273.391L266.924 221.215L255.769 222.51Z" fill="#FF8A00"/>
<path d="M129.663 223.158L264.338 223.806C297.158 196.923 300.553 156.923 277.11 132.793C263.044 118.218 252.374 112.712 235.398 110.283C215.189 107.368 212.278 106.559 206.782 103.482C189.159 93.765 183.177 80.6476 168.303 61.3764C166.525 58.9472 164.584 56.68 162.483 54.2509C150.357 40.6476 126.106 40.1618 113.334 59.2711C80.9988 108.016 95.8728 180.405 129.663 223.158Z" fill="#F9C521"/>
<path opacity="0.1" d="M123.034 102.186C123.034 174.899 191.099 187.045 231.033 169.717C265.631 154.656 253.667 114.98 224.404 109.15C224.404 109.15 212.602 106.883 206.943 103.806C189.321 94.089 175.902 72.2267 161.028 52.7935C138.878 40.8097 123.034 59.5951 123.034 102.186Z" fill="black"/>
<path d="M244.452 266.559C242.512 266.721 189.321 255.385 187.543 253.603C187.381 253.441 188.19 248.583 189.645 241.943V241.781C190.453 237.571 205.165 203.563 205.165 203.563L239.602 212.308L224.728 243.887C224.728 243.887 231.357 248.421 236.854 252.794C240.41 255.385 243.321 257.814 243.967 258.623C245.907 260.729 246.392 266.397 244.452 266.559Z" fill="white"/>
<path d="M244.452 266.559C239.763 265.911 235.237 264.939 230.71 264.13L217.129 261.215C208.075 259.271 199.021 257.328 189.968 254.737C189.483 254.575 188.836 254.413 188.351 254.251C188.028 254.089 187.866 254.089 187.543 253.765C187.381 253.603 187.543 253.441 187.543 253.441C187.543 253.279 187.543 253.279 187.543 253.279V252.793C187.704 251.66 187.866 250.526 188.189 249.393L189.483 242.591C189.968 240.324 190.938 238.057 191.746 235.951L194.333 229.474C197.89 220.891 201.447 212.308 205.165 203.725L205.327 203.401L205.65 203.563L240.087 212.47H240.41L240.248 212.793L225.213 244.372V244.21L237.338 253.117L240.895 255.87C242.027 256.842 243.159 257.652 244.29 258.785C245.26 259.919 245.745 261.376 245.907 262.834C246.069 263.644 246.069 264.291 245.907 265.101C245.422 265.587 245.26 266.397 244.452 266.559ZM244.452 266.559C245.26 266.397 245.584 265.587 245.584 264.777C245.745 263.968 245.584 263.32 245.584 262.51C245.422 261.053 244.937 259.595 243.967 258.462C242.835 257.49 241.703 256.518 240.572 255.547L237.015 252.793L224.728 244.049H224.566V243.887L239.278 212.146L239.44 212.47L204.842 203.725L205.327 203.563C201.608 212.146 198.051 220.729 194.495 229.312L191.908 235.789C191.099 237.895 190.129 240.162 189.644 242.267L188.189 249.069C188.028 250.202 187.704 251.336 187.543 252.47V252.955V253.117C187.543 253.117 187.543 253.279 187.543 253.117C187.704 253.279 188.028 253.279 188.189 253.441C188.674 253.603 189.321 253.765 189.806 253.927C198.698 256.518 207.752 258.461 216.806 260.567L230.386 263.482C235.237 264.777 239.763 265.911 244.452 266.559Z" fill="#363B4D"/>
<path d="M187.542 253.603C189.32 255.223 242.511 266.721 244.451 266.559C246.392 266.397 245.906 260.729 244.29 258.785C243.643 257.976 240.571 255.547 237.176 252.955C235.074 251.336 232.649 249.555 230.709 248.097C237.661 254.575 242.188 264.291 190.29 240.324C189.967 240.972 189.805 241.619 189.805 241.943V242.105C188.35 248.583 187.38 253.441 187.542 253.603Z" fill="#363B4D"/>
<path d="M227.476 243.725L190.452 233.522C190.452 233.522 219.231 169.555 218.26 166.478C217.614 164.372 172.183 165.182 158.603 153.522C144.537 141.376 154.722 116.923 154.722 116.923L192.878 115.789C192.878 115.789 192.393 123.725 193.848 125.02C194.818 125.83 247.2 129.231 257.547 148.178C267.086 165.344 227.476 243.725 227.476 243.725Z" fill="#363B4D"/>
<path opacity="0.26" d="M228.122 235.789C227.152 235.304 226.182 234.98 225.051 234.818C223.919 234.494 222.949 234.17 221.817 233.846C219.715 233.198 217.614 232.551 215.512 232.065C211.147 230.931 206.943 229.798 202.578 228.826C200.314 228.34 195.464 227.206 195.141 227.206C194.979 227.206 194.979 227.53 195.141 227.53C199.344 228.988 203.548 230.121 207.751 231.255C211.955 232.389 216.158 233.684 220.524 234.656C221.655 234.98 222.949 235.142 224.081 235.466C225.374 235.789 226.667 236.113 227.799 236.113C228.122 236.113 228.284 235.951 228.122 235.789Z" fill="#DFF7FE"/>
<path opacity="0.26" d="M156.824 124.049C156.986 122.753 156.986 121.458 157.148 120.162C157.148 120 157.471 120 157.309 120.162C156.986 125.344 156.501 130.688 157.633 135.709C158.603 140.567 161.028 144.615 164.746 147.854C172.507 154.818 183.177 156.599 193.039 158.057C198.698 158.866 204.356 159.514 210.177 160C212.925 160.162 215.835 160.324 218.584 160.486C221.332 160.648 224.081 160.486 226.991 160.648C227.799 160.648 228.608 161.134 228.608 162.105C228.608 162.753 228.284 163.239 227.961 163.887C227.638 164.534 227.476 165.182 227.153 165.992C226.021 168.583 225.051 171.012 223.919 173.603C221.656 178.785 219.554 184.13 217.129 189.312C212.602 199.676 207.913 209.879 203.063 220.081C202.416 221.377 201.931 222.672 201.285 223.806C201.285 223.968 201.123 223.806 201.123 223.806C205.812 213.441 210.338 203.077 214.865 192.713C217.129 187.53 219.392 182.348 221.494 177.328C222.626 174.737 223.757 172.146 224.727 169.555C225.212 168.259 225.859 166.964 226.344 165.668C226.668 165.02 226.829 164.373 227.153 163.725C227.314 163.239 228.284 161.943 227.638 161.458C227.153 161.134 226.344 161.296 225.859 161.296C225.051 161.296 224.404 161.296 223.596 161.296C222.141 161.296 220.847 161.296 219.392 161.296C216.482 161.296 213.734 161.134 210.823 160.972C205.327 160.648 199.668 160 194.171 159.352C184.309 158.057 173.638 156.437 165.555 150.122C161.998 147.368 159.249 143.644 157.794 139.271C156.501 134.251 156.501 129.069 156.824 124.049Z" fill="#DFF7FE"/>
<path d="M322.702 218.785C321.408 220.243 273.067 245.344 270.642 245.182C270.319 245.182 268.056 240.81 264.822 234.818V234.656C262.882 230.931 244.774 199.19 244.774 199.19L274.846 182.996L293.438 213.927C293.438 213.927 301.36 213.279 308.474 212.955C312.839 212.794 316.72 212.632 317.69 212.955C320.115 213.441 324.157 217.328 322.702 218.785Z" fill="white"/>
<path d="M322.702 218.785C318.822 221.215 314.618 223.32 310.576 225.587L298.289 232.065C290.043 236.275 281.798 240.648 273.391 244.372C272.906 244.534 272.259 244.858 271.774 245.02C271.451 245.182 271.289 245.182 270.966 245.344H270.643L270.481 245.182L270.319 245.02C270.158 244.858 270.158 244.696 269.996 244.696C269.349 243.725 268.864 242.753 268.217 241.619L264.984 235.466L258.032 223.32L244.29 199.19L244.128 198.866L244.451 198.704L274.523 182.672L274.684 182.51L274.846 182.672L293.277 213.603H293.115L308.151 212.632L312.678 212.47C314.133 212.47 315.588 212.47 317.205 212.47C318.66 212.632 319.953 213.603 321.085 214.575C321.57 215.061 322.055 215.709 322.54 216.356C322.863 217.328 323.348 218.138 322.702 218.785ZM322.702 218.785C323.187 218.138 322.863 217.328 322.54 216.68C322.217 216.032 321.732 215.547 321.085 214.899C319.953 213.927 318.66 212.955 317.205 212.794C315.75 212.632 314.295 212.794 312.84 212.794L308.474 212.955L293.439 213.927L274.684 183.158L275.008 183.32L245.098 199.514L245.26 199.028L258.84 223.32L265.631 235.466L268.864 241.619C269.349 242.591 269.996 243.725 270.643 244.696C270.643 244.858 270.804 244.858 270.804 245.02H270.966C271.128 245.02 271.451 244.858 271.774 244.858C272.259 244.696 272.906 244.372 273.391 244.211C281.798 240.486 290.043 236.275 298.289 232.065L310.576 225.749C314.618 223.32 318.822 221.215 322.702 218.785Z" fill="#363B4D"/>
<path d="M264.661 234.17C264.823 234.332 264.823 234.494 264.984 234.656V234.818C268.056 240.81 270.481 245.182 270.805 245.182C273.23 245.344 321.409 220.243 322.864 218.785C324.157 217.328 320.277 213.441 317.69 212.955C316.72 212.793 312.84 212.793 308.475 212.955C305.403 213.117 302.331 213.279 299.583 213.441C309.283 213.441 321.571 217.652 264.661 234.17Z" fill="#363B4D"/>
<path d="M293.115 208.907L256.9 228.016C256.9 228.016 226.99 170.526 223.757 166.802C219.392 161.943 165.231 170.202 151.973 154.332C138.231 137.976 149.225 116.923 149.225 116.923L190.614 115.951C190.614 115.951 190.775 120.486 188.673 127.287C188.673 127.287 236.044 123.401 249.786 136.032C260.134 145.911 293.115 208.907 293.115 208.907Z" fill="#363B4D"/>
<path d="M181.075 131.822C183.177 130.364 185.279 128.907 187.542 127.611C188.674 126.964 191.099 125.83 192.554 125.506C193.686 125.182 194.333 125.02 193.201 125.668C192.554 125.992 191.261 126.64 190.129 127.125C190.291 127.125 190.614 127.125 190.776 127.125C191.584 127.125 192.392 126.964 193.201 126.964C194.818 126.964 196.434 126.802 198.051 126.802C201.285 126.64 204.518 126.964 207.751 126.964C207.913 126.964 207.913 127.125 207.751 127.125C204.518 127.125 201.285 127.287 198.051 127.449C196.434 127.449 194.818 127.611 193.201 127.611C192.392 127.611 191.584 127.611 190.937 127.773C190.291 127.773 189.644 127.935 188.997 127.773C188.674 127.935 188.351 128.097 188.189 128.259C185.764 129.231 183.5 130.526 181.075 131.822C181.237 131.822 181.075 131.822 181.075 131.822Z" fill="#363B4D"/>
<path d="M191.584 114.332C191.261 116.275 190.937 118.219 190.452 120.162C190.291 121.134 190.129 121.943 189.805 122.915C189.644 123.725 189.159 124.534 188.35 124.696C187.38 124.858 187.057 124.049 187.057 123.401C187.057 122.429 187.219 121.619 187.38 120.648C187.542 119.676 187.704 118.542 187.865 117.571C187.865 117.085 188.027 116.599 188.027 116.113C188.027 115.951 188.027 114.98 188.189 114.656V114.494C188.189 114.494 188.189 114.494 188.027 114.494C187.865 114.656 187.865 114.818 187.865 114.98C187.704 115.466 187.542 115.951 187.542 116.437C187.38 117.409 187.057 118.38 186.895 119.352C186.734 120.324 186.572 121.295 186.41 122.267C186.249 122.915 186.087 123.725 186.41 124.372C186.734 125.182 187.38 125.506 188.027 125.506C188.027 125.506 188.027 125.668 187.865 125.668C187.865 125.83 187.704 125.992 187.704 126.316C187.704 126.478 187.542 126.802 187.542 126.963C187.542 127.125 187.542 127.125 187.542 127.287C187.542 127.449 187.542 127.449 187.542 127.611C187.542 127.773 187.704 127.935 187.865 127.773C187.865 127.611 188.027 127.611 188.027 127.449C188.027 127.287 188.189 127.287 188.189 127.125C188.189 126.963 188.35 126.802 188.35 126.478C188.35 126.316 188.512 126.154 188.512 125.83C188.512 125.668 188.512 125.668 188.512 125.506C188.835 125.506 189.32 125.344 189.644 125.02C190.129 124.534 190.452 123.887 190.776 123.239C191.099 122.429 191.261 121.619 191.422 120.648C191.907 118.542 192.231 116.437 192.231 114.332C191.907 114.17 191.584 114.17 191.584 114.332Z" fill="#363B4D"/>
<path d="M171.698 120.486C171.536 121.457 171.536 122.429 171.374 123.401C171.213 124.372 171.051 125.344 170.728 126.154C170.404 126.964 170.243 127.935 169.758 128.745C169.273 129.555 168.626 130.202 167.979 130.85C166.686 131.984 165.231 132.955 163.614 133.603C162.806 133.927 161.997 134.251 161.189 134.413C160.704 134.575 160.381 134.575 159.896 134.737C159.572 134.737 159.087 134.899 158.764 135.061C158.602 135.223 158.602 135.385 158.764 135.385C159.411 135.709 160.219 135.385 160.704 135.385C161.351 135.223 162.159 135.061 162.806 134.899C164.261 134.413 165.554 133.765 166.848 132.955C167.979 132.146 169.273 131.174 170.081 130.04C170.889 128.745 171.374 127.449 171.698 125.992C172.021 124.211 172.183 122.267 172.021 120.486C171.859 120.324 171.698 120.324 171.698 120.486Z" fill="#363B4D"/>
<path d="M285.517 202.429C284.547 202.753 283.577 203.239 282.607 203.725C281.637 204.211 280.667 204.696 279.535 205.182C277.595 206.154 275.655 207.126 273.715 208.259C269.834 210.364 265.954 212.632 262.074 214.899C260.134 216.032 255.769 218.624 255.607 218.785C255.445 218.947 255.607 219.109 255.769 219.109C259.811 217.166 263.691 215.223 267.571 213.117C271.451 211.012 275.331 209.069 279.211 206.802C280.182 206.154 281.313 205.506 282.283 204.858C283.415 204.211 284.547 203.563 285.517 202.753C285.678 202.591 285.678 202.267 285.517 202.429Z" fill="#363B4D"/>
<path opacity="0.26" d="M149.387 126.64C149.387 126.478 149.71 126.478 149.71 126.64C149.872 135.709 151.488 145.749 158.602 152.065C166.363 159.028 177.356 159.514 187.219 159.19C192.877 159.028 198.536 158.705 204.194 158.705C209.853 158.705 215.673 158.866 221.332 159.514C223.595 159.676 225.535 160.486 227.152 162.105C228.769 163.725 229.901 165.668 231.194 167.611C234.104 172.308 237.014 177.004 239.763 181.701C245.26 191.255 250.433 200.81 255.122 210.688C255.769 211.984 256.254 213.118 256.9 214.413C256.9 214.575 256.739 214.575 256.739 214.413C251.888 204.535 246.715 194.656 241.218 185.101C238.469 180.243 235.559 175.547 232.649 170.85C231.356 168.583 229.901 166.316 228.446 164.373C227.152 162.591 225.374 160.81 223.11 160.162C221.817 159.838 220.362 159.676 218.907 159.676C217.452 159.514 215.997 159.514 214.542 159.352C211.793 159.19 208.883 159.19 206.134 159.028C200.476 159.028 194.656 159.19 188.997 159.352C179.135 159.838 168.303 159.676 159.896 153.522C156.339 150.931 153.59 147.207 151.974 142.996C150.357 138.786 149.71 134.089 149.387 129.555C149.387 128.907 149.387 127.773 149.387 126.64Z" fill="#DFF7FE"/>
<path opacity="0.26" d="M209.692 164.696C211.793 164.696 213.733 164.696 215.835 164.696C217.452 164.696 219.23 164.696 220.847 165.02C222.464 165.344 223.596 165.506 224.889 167.287C226.506 169.393 235.398 185.587 239.116 192.874C240.086 194.818 241.218 196.923 242.188 198.866C243.158 200.972 244.128 203.077 245.26 205.182C245.26 205.182 245.26 205.344 245.098 205.182C244.128 203.401 243.158 201.781 242.188 200C241.218 198.219 240.248 196.599 239.44 194.818C237.661 191.255 235.721 187.854 233.943 184.291C232.164 180.891 229.901 177.49 227.961 173.927C226.344 171.012 224.242 166.964 222.787 166.478C221.009 165.83 218.26 165.182 216.482 165.02C214.057 165.182 211.955 165.02 209.692 164.696C209.53 164.858 209.53 164.696 209.692 164.696Z" fill="#DFF7FE"/>
<path d="M184.632 70.4453C199.021 75.7895 206.943 79.0283 206.943 79.0283C206.943 79.0283 202.093 68.0162 200.8 64.7773C199.183 63.4818 198.698 62.1862 198.698 62.1862C197.89 62.5101 197.081 62.834 197.081 62.834C195.465 60.081 193.848 56.3563 193.201 54.8988C191.908 51.8218 196.111 46.6397 196.111 46.6397C191.423 47.2874 187.381 53.1174 185.441 51.498C183.339 49.7166 188.351 44.0486 191.423 42.915C204.68 38.2186 209.854 43.2388 213.41 46.1538C216.321 48.583 218.584 51.498 220.039 53.4413H220.201C220.686 54.0891 221.009 54.8988 221.494 55.5465C221.494 55.7085 221.656 55.7085 221.656 55.8704C221.817 56.0324 221.817 56.1943 221.817 56.1943C236.853 81.4575 239.763 107.368 233.135 108.502C212.764 111.903 182.207 80.4858 177.195 72.7125C174.123 68.0162 177.842 68.0162 184.632 70.4453Z" fill="white"/>
<path d="M184.632 70.4454C192.069 73.1984 199.506 75.9514 206.943 78.8664L206.781 79.0284C204.679 74.332 202.578 69.4737 200.476 64.7773C199.668 64.1296 198.859 63.1579 198.374 62.1863H198.536C198.051 62.3482 197.566 62.6721 196.919 62.834H196.757V62.6721C195.302 60.081 194.009 57.328 192.877 54.5749C192.392 53.1174 192.877 51.498 193.524 50.2024C194.171 48.745 194.979 47.6114 195.949 46.3158L196.111 46.6397C193.847 46.9636 191.746 48.583 189.967 49.8786C188.997 50.5263 188.027 51.336 186.895 51.6599C186.249 51.8219 185.44 51.6599 185.117 51.0122C184.794 50.3644 184.794 49.7166 184.955 49.0688C185.279 47.9352 186.087 46.8016 186.895 45.9919C187.704 45.0203 188.512 44.2105 189.482 43.5628C189.967 43.2389 190.452 42.915 191.099 42.5911C191.746 42.2672 192.231 42.2672 192.877 41.9433C194.009 41.6194 195.141 41.2956 196.272 40.9717C198.698 40.4858 201.123 40.162 203.548 40.4858C205.973 40.8097 208.398 41.6194 210.338 42.915C214.38 45.668 217.775 49.0688 220.524 52.9555L220.2 52.7935H220.362C220.362 52.7935 220.524 52.7935 220.524 52.9555C220.685 53.1174 220.685 53.1174 220.685 53.1174L220.847 53.2794L221.009 53.6033L221.494 54.251L222.302 55.7085L222.464 56.0324L222.14 56.1943L222.302 55.7085C228.122 65.5871 232.649 76.2753 235.398 87.4494C236.044 90.2024 236.529 93.1174 236.853 96.0324C237.014 98.9474 237.176 101.862 236.529 104.615C236.206 105.911 235.559 107.53 234.104 108.178C232.649 108.502 231.194 108.664 229.739 108.664C226.829 108.664 223.919 108.016 221.332 107.045C215.835 105.263 210.823 102.348 205.973 99.1093C201.284 95.8705 196.757 92.3077 192.392 88.4211C188.189 84.5344 184.147 80.4858 180.428 76.1134C179.458 74.9798 178.65 73.8462 177.842 72.7126C177.518 72.0648 177.033 71.579 176.71 70.9312C176.386 70.2834 176.063 69.4737 176.548 68.8259C177.033 68.3401 177.842 68.3401 178.65 68.3401C179.297 68.3401 180.105 68.502 180.752 68.664C181.883 69.4737 183.177 69.9595 184.632 70.4454ZM184.632 70.4454C183.338 69.9595 181.883 69.4737 180.59 69.1498C179.943 68.9879 179.135 68.8259 178.488 68.8259C177.842 68.8259 177.033 68.8259 176.548 69.3118C176.063 69.9595 176.386 70.7692 176.71 71.2551C177.033 71.9028 177.356 72.5506 177.842 73.0364C178.65 74.1701 179.62 75.3037 180.428 76.4373C184.147 80.8097 188.189 84.8583 192.554 88.583C196.757 92.3077 201.284 95.8705 206.135 99.1093C210.823 102.186 215.997 105.101 221.332 106.883C224.08 107.692 226.829 108.34 229.739 108.34C231.194 108.34 232.649 108.34 233.943 108.016C235.236 107.53 235.721 106.073 236.044 104.777C236.691 102.024 236.529 99.1093 236.368 96.3563C236.044 93.4413 235.559 90.6883 234.913 87.9352C232.326 76.7611 227.637 66.2348 221.817 56.3563L221.655 56.0324L221.979 55.8705L221.817 56.3563L221.009 54.8988L220.524 54.251L220.362 53.9271L220.2 53.7652H220.039L219.877 53.6033C217.128 49.7166 213.733 46.3158 209.853 43.5628C207.913 42.2672 205.65 41.4575 203.386 41.1336C201.123 40.8097 198.698 41.1336 196.434 41.6194C195.302 41.9433 194.171 42.1053 193.039 42.5911C192.554 42.753 191.907 42.915 191.422 43.0769C190.937 43.2389 190.452 43.5628 189.967 43.8867C188.189 45.3441 186.41 47.1255 185.602 49.2308C185.44 49.7166 185.44 50.3644 185.602 50.8502C185.925 51.336 186.41 51.498 186.895 51.336C188.027 51.0122 188.997 50.2024 189.967 49.5547C191.907 48.2591 193.847 46.6397 196.272 46.3158H196.757L196.434 46.6397C195.464 47.7733 194.656 49.0688 194.171 50.3644C193.524 51.6599 193.039 53.1174 193.524 54.5749C194.656 57.328 195.787 60.081 197.404 62.6721H197.242C197.727 62.5101 198.213 62.3482 198.698 62.0243H198.859V62.1863C199.344 63.1579 200.153 63.9676 200.961 64.6154C202.901 69.4737 205.003 74.1701 207.105 78.8664V79.0284H206.943C199.506 76.1134 192.069 73.1984 184.632 70.4454Z" fill="#363B4D"/>
<path d="M197.404 45.3441C192.715 47.1255 184.147 51.9838 185.602 55.5465C186.572 58.1376 190.129 56.5182 190.129 56.5182C190.129 56.5182 187.057 59.2712 188.512 61.3765C189.805 63.3198 192.392 62.0243 192.392 62.0243C192.392 62.0243 190.775 63.9676 192.392 65.587C194.332 67.5304 198.536 62.0243 202.092 62.3482" fill="white"/>
<path d="M197.404 45.3441C195.787 45.9919 194.17 46.9635 192.554 47.7733C190.937 48.7449 189.482 49.7166 188.188 50.8502C187.542 51.498 186.895 52.1457 186.41 52.7935C185.925 53.4413 185.602 54.251 185.763 55.0607C185.925 55.8704 186.572 56.3563 187.38 56.5182C188.188 56.6801 188.997 56.3563 189.805 56.1943L191.745 55.3846L190.128 56.8421C189.643 57.3279 188.997 57.9757 188.673 58.6235C188.35 59.2712 188.027 60.081 188.35 60.7287C188.512 61.3765 189.158 61.8623 189.805 62.0243C190.452 62.1862 191.26 62.0243 191.907 61.7004L193.2 61.0526L192.392 62.1862C191.745 62.9959 191.422 64.2915 192.23 65.2631C192.877 66.2348 194.17 65.749 195.14 65.1012C196.272 64.4534 197.242 63.8056 198.374 63.3198C199.506 62.834 200.637 62.3482 201.931 62.3482C200.637 62.3482 199.506 62.834 198.535 63.4818C197.565 64.1295 196.434 64.7773 195.464 65.4251C194.979 65.749 194.332 66.0729 193.685 66.2348C193.362 66.2348 193.039 66.3967 192.715 66.2348C192.392 66.0729 192.068 65.9109 191.907 65.587C191.422 65.1012 191.26 64.2915 191.26 63.6437C191.26 62.9959 191.583 62.3482 192.068 61.7004L192.554 62.1862C191.745 62.5101 190.937 62.834 189.967 62.6721C188.997 62.5101 188.188 61.7004 187.865 60.8907C187.542 59.919 187.865 58.9474 188.35 58.1376C188.835 57.3279 189.32 56.6801 189.967 56.0324L190.452 56.6801C189.482 57.004 188.673 57.3279 187.542 57.166C186.572 57.004 185.602 56.1943 185.44 55.2227C185.116 54.0891 185.602 53.1174 186.248 52.4696C186.895 51.6599 187.542 51.0121 188.188 50.5263C190.775 48.0972 194.009 46.6397 197.404 45.3441Z" fill="#363B4D"/>
<path d="M200.314 50.2024C198.051 50.6882 193.039 52.9554 190.129 56.5182V56.6801C194.171 53.4413 198.536 51.1741 200.314 50.2024C200.314 50.3643 200.314 50.2024 200.314 50.2024Z" fill="#363B4D"/>
<path d="M197.89 45.1821C195.626 45.668 190.614 47.9352 187.704 51.4979V51.6599C191.584 48.2591 195.95 45.9918 197.89 45.1821Z" fill="#363B4D"/>
<path d="M202.093 55.0608C200.153 55.7086 194.979 58.2997 192.23 62.0243C192.23 62.1863 192.23 62.1863 192.23 62.1863C196.272 58.4616 200.153 56.0325 202.093 55.0608Z" fill="#363B4D"/>
<path d="M198.859 63.1578C199.183 62.834 201.608 61.3765 204.518 61.3765C204.518 61.3765 204.68 61.5384 204.518 61.5384C202.901 62.0242 201.608 62.3481 201.608 62.3481C203.71 64.7773 207.428 65.587 209.045 65.9109C209.207 65.9109 209.045 66.0728 209.045 66.0728C206.135 66.2348 202.901 64.9392 201.446 62.5101C200.961 62.5101 199.183 63.3198 198.859 63.1578C198.859 63.3198 198.859 63.1578 198.859 63.1578Z" fill="#363B4D"/>
<path d="M228.284 65.425L201.285 68.6639L204.68 76.2752C204.68 76.2752 190.452 70.4453 182.854 67.5303C175.255 64.7773 172.83 68.1781 177.68 74.8178C182.53 81.2955 198.213 96.5182 210.177 103.32C221.171 109.636 228.931 110.445 233.134 109.15C237.176 107.854 241.865 95.3846 228.284 65.425Z" fill="#5EE67B"/>
<path d="M204.679 76.2753C207.266 82.5911 210.176 88.9068 213.086 95.2226C213.895 97.004 214.703 98.6234 215.511 100.405C215.511 100.405 215.511 100.567 215.35 100.405C213.571 97.4898 211.955 94.4129 210.5 91.336C209.044 88.2591 207.589 85.1821 206.458 81.9433C205.811 80 205.164 78.0566 204.679 76.2753C204.518 76.1133 204.679 76.1133 204.679 76.2753Z" fill="#363B4D"/>
<path d="M217.613 72.8744C219.553 72.5506 227.637 71.7408 229.577 71.7408V71.9028C227.637 72.3886 219.553 73.5222 217.613 73.6842C213.571 74.17 209.529 74.6558 205.487 74.8178C205.326 74.8178 205.326 74.6558 205.487 74.6558C209.529 73.8461 213.571 73.5222 217.613 72.8744Z" fill="#363B4D"/>
<path opacity="0.1" d="M177.68 74.8178C182.53 81.2956 198.213 96.5182 210.176 103.32C212.278 104.453 214.218 105.587 216.158 106.397L179.943 66.8826C174.608 65.749 173.476 69.1498 177.68 74.8178Z" fill="#363B4D"/>
<path d="M196.272 124.049L144.698 123.401C144.698 123.401 158.764 80.4858 169.758 69.4737C174.77 64.4534 179.458 65.4251 183.338 68.8259C184.308 69.6356 196.111 86.1538 196.919 91.6599C197.727 96.5182 193.686 101.376 193.686 101.376L196.272 124.049Z" fill="#5EE67B"/>
<path d="M178.973 101.053C181.075 101.053 183.176 100.891 185.44 101.215C186.572 101.377 187.542 101.539 188.512 101.7C188.997 101.862 189.482 101.862 190.128 102.024C190.613 102.024 191.26 102.186 191.745 102.024C191.26 102.186 190.775 102.186 190.128 102.186C189.643 102.186 189.158 102.186 188.673 102.186C187.542 102.024 186.572 101.862 185.44 101.862C183.338 101.7 181.075 101.377 178.973 101.215C178.811 101.215 178.811 101.053 178.973 101.053Z" fill="#363B4D"/>
<path d="M173.961 103.644C175.739 103.158 177.356 102.834 179.135 102.672C179.943 102.51 180.913 102.51 181.721 102.51C182.206 102.51 182.53 102.51 183.015 102.51C183.5 102.51 183.985 102.51 184.47 102.51C183.985 102.51 183.661 102.672 183.176 102.672C182.691 102.672 182.368 102.834 181.883 102.834C181.075 102.996 180.105 102.996 179.296 103.158C177.518 103.32 175.739 103.482 173.961 103.644C173.961 103.806 173.961 103.644 173.961 103.644Z" fill="#363B4D"/>
<path d="M223.433 127.611C221.17 125.668 215.35 123.401 211.793 122.429C206.781 120.972 199.506 119.19 196.757 118.542C191.099 116.113 167.332 105.425 167.494 103.482C167.656 102.348 170.728 92.9554 173.799 80.6477C177.195 66.3967 172.991 65.2631 168.464 70.6072C158.764 81.7813 140.009 108.664 145.183 115.304C152.782 125.02 174.446 136.842 183.662 140.729C187.703 143.158 193.524 145.587 203.224 142.834C203.224 142.834 211.631 155.951 215.673 154.008C217.29 153.198 216.643 150.769 215.511 148.502C217.775 151.579 220.523 154.656 222.463 153.846C225.697 152.389 222.787 147.854 222.463 147.53C224.889 150.769 227.475 153.522 229.415 152.389C232.164 150.607 228.93 144.777 226.344 140.729C229.254 144.453 233.619 149.474 235.559 147.692C239.116 144.615 226.829 130.526 223.433 127.611Z" fill="white" stroke="#363B4D" stroke-width="0.5" stroke-miterlimit="10"/>
<path d="M220.362 132.308C221.656 133.765 222.949 135.223 224.081 136.842C225.213 138.461 226.344 140.081 227.314 141.7C229.739 145.749 230.548 148.664 230.548 148.502C228.769 144.291 224.889 138.623 223.757 137.166C222.464 135.546 221.494 133.927 220.362 132.308Z" fill="#363B4D"/>
<path d="M214.704 136.356C216.159 138.3 217.776 140.243 219.231 142.186C220.686 144.13 222.626 147.045 223.919 149.15C224.081 149.312 223.757 149.474 223.757 149.312C222.302 147.206 220.362 144.453 218.907 142.348C217.452 140.405 216.159 138.3 214.704 136.356C214.542 136.356 214.704 136.194 214.704 136.356Z" fill="#363B4D"/>
<path d="M210.015 140.081C212.44 142.996 214.542 146.073 216.32 149.474C216.482 149.636 215.835 149.474 215.835 149.312C213.895 146.235 212.601 143.806 210.015 140.081C210.015 140.243 210.015 140.081 210.015 140.081Z" fill="#363B4D"/>
<path d="M191.584 115.142L176.71 142.834C176.71 142.834 147.77 123.239 144.052 114.494C140.656 106.721 161.997 77.2469 166.848 71.5789C171.698 65.9109 176.225 65.2631 175.093 75.1417C173.8 85.1822 168.464 102.996 168.464 103.32C168.464 103.644 191.584 115.142 191.584 115.142Z" fill="#5EE67B"/>
<path d="M178.811 125.344C179.943 123.239 184.308 114.98 185.601 113.036H185.763C184.955 115.304 180.59 123.725 179.458 125.83C177.194 130.04 175.093 134.251 172.668 138.3C172.668 138.461 172.506 138.3 172.506 138.3C174.284 133.927 176.548 129.717 178.811 125.344Z" fill="#363B4D"/>
<path d="M171.051 92.4696C172.021 88.7449 172.991 84.8582 173.961 81.1335H174.123C173.8 83.2388 173.315 85.3441 172.991 87.6113C173.476 86.4777 173.8 85.506 174.285 84.3724C174.285 84.2105 174.446 84.3724 174.446 84.3724C174.123 85.8299 173.476 87.2874 172.83 88.5829C172.506 89.8785 172.183 91.174 171.86 92.4696C171.375 94.4129 169.111 102.51 168.788 103.482C171.86 104.777 174.608 106.397 177.68 107.854C179.135 108.664 186.087 111.741 187.542 112.551C188.997 113.36 190.776 114.008 192.069 114.98C192.069 114.98 191.584 115.951 191.422 116.275C191.422 116.437 191.261 116.275 191.261 116.275C191.261 116.275 191.584 115.466 191.746 115.466C190.937 115.142 188.027 113.684 187.219 113.36C185.764 112.551 184.309 111.903 182.692 111.093C179.62 109.636 167.979 104.129 167.979 103.968C167.979 102.834 170.566 94.4129 171.051 92.4696Z" fill="#363B4D"/>
<path d="M145.992 117.571C146.639 118.704 147.609 119.676 148.417 120.648C148.902 121.134 149.387 121.619 149.872 122.105C150.357 122.591 150.842 122.915 151.489 123.401C150.681 122.429 149.711 121.457 148.902 120.486C147.771 119.514 146.962 118.542 145.992 117.571Z" fill="#363B4D"/>
<path d="M174.123 68.178C174.285 69.1497 178.327 75.1416 182.53 75.1416C183.824 75.1416 184.147 67.6922 184.147 67.6922L184.309 67.2064L186.41 59.595L177.68 53.4412L176.387 52.6315C176.387 52.6315 175.902 54.7367 175.417 57.3278C175.417 57.4898 175.417 57.6517 175.417 57.6517C175.417 57.8137 175.417 57.9756 175.255 58.1375C175.255 58.4614 175.093 58.9473 175.093 59.2711C175.093 59.595 174.931 59.9189 174.931 60.2428C174.931 60.5667 174.77 60.8906 174.77 61.2145C174.285 64.6153 173.961 67.8541 174.123 68.178Z" fill="white"/>
<path d="M174.124 68.1781C174.771 69.6356 175.902 70.9311 176.872 72.0647C178.004 73.1983 179.298 74.17 180.753 74.6558C181.076 74.8177 181.561 74.8177 181.884 74.9797H182.531C182.693 74.9797 182.693 74.8177 182.854 74.6558C183.178 74.008 183.339 73.1983 183.501 72.3886C183.663 70.7692 183.824 69.1497 183.824 67.6922L185.926 59.5951L186.088 60.0809L181.076 56.5181C179.459 55.3845 177.843 54.089 176.064 52.9554L176.387 52.7934L175.579 56.6801C175.256 57.9756 174.932 59.2712 174.771 60.5667C174.447 61.8623 174.447 63.1578 174.286 64.4534C174.286 65.587 174.124 66.8825 174.124 68.1781ZM174.124 68.1781C174.124 66.8825 174.286 65.587 174.286 64.2914C174.447 62.9959 174.609 61.7003 174.771 60.4048C174.932 59.1092 175.256 57.8137 175.417 56.5181L176.064 52.6315V52.3076L176.387 52.4696C178.166 53.4412 179.783 54.7368 181.399 55.8704L186.411 59.2712L186.573 59.4331V59.757C185.765 62.51 185.118 65.1011 184.31 67.8542C184.148 69.4736 183.986 71.093 183.663 72.7125C183.501 73.5222 183.339 74.3319 182.854 74.9797C182.693 75.1416 182.531 75.3036 182.208 75.3036H181.561C181.238 75.3036 180.753 75.1416 180.429 74.9797C178.974 74.3319 177.681 73.3602 176.549 72.2266C175.741 70.9311 174.609 69.7975 174.124 68.1781Z" fill="#363B4D"/>
<path d="M184.309 67.8541L181.884 74.008L174.123 66.0728L170.566 67.8541C170.566 67.8541 179.944 81.1335 179.944 80.6476L182.207 75.3035L185.926 78.7043L185.44 68.6638L184.309 67.8541Z" fill="white"/>
<path d="M184.309 67.8542L182.046 74.008L181.884 74.3319L181.722 74.17L173.8 66.3967H174.124L170.567 68.1781L170.728 67.6923L175.417 74.17L177.68 77.4088L178.812 79.0283L179.459 79.838L179.782 80.1619L179.944 80.3238C179.944 80.3238 179.944 80.3238 179.782 80.3238C179.62 80.3238 179.62 80.3238 179.62 80.3238C179.459 80.3238 179.459 80.4858 179.459 80.6477V80.4858L181.722 75.1416L181.884 74.6558L182.207 74.9797L185.926 78.5425L185.441 78.7044C185.279 75.3036 185.279 71.9028 185.279 68.6639L184.309 67.8542ZM184.309 67.8542L185.602 68.502C185.764 71.9028 186.087 75.3036 186.249 78.5425V79.1902L185.764 78.7044L181.884 75.3036L182.369 75.1416L180.106 80.4858V80.3238C180.106 80.4858 179.944 80.6477 179.944 80.6477C179.782 80.6477 179.782 80.6477 179.62 80.6477C179.459 80.6477 179.459 80.6477 179.459 80.6477C179.459 80.6477 179.459 80.6477 179.297 80.6477L179.135 80.4858L178.974 80.3238L178.65 79.9999L178.004 79.1902L176.872 77.5708L174.447 74.3319L169.92 67.8542L169.597 67.5303L169.92 67.3684L173.477 65.587L173.639 65.425L173.8 65.587L181.561 73.6842H181.237L184.309 67.8542Z" fill="#363B4D"/>
<path d="M185.926 74.17C185.764 72.7125 185.926 70.1214 185.602 68.6639H185.441C185.279 70.1214 185.602 76.923 185.764 78.2186C185.602 78.0566 182.207 75.1417 182.207 75.3036C181.722 76.1133 180.105 80 179.944 80.4858C178.65 78.5425 173.315 71.255 171.86 69.4737H171.698C172.83 71.417 179.782 81.1336 179.782 81.1336C179.782 81.1336 181.884 76.4372 182.045 75.4656C182.692 76.1133 186.087 79.3522 186.087 79.1903C186.249 77.5708 186.087 75.6275 185.926 74.17Z" fill="#363B4D"/>
<path d="M174.285 52.6316C168.95 54.0891 164.746 56.5182 162.968 61.0526C159.249 70.9312 172.668 78.8664 176.387 90.8502C181.075 105.101 189.159 111.255 194.979 105.749C201.446 99.5951 198.536 87.6113 182.207 76.9231C172.022 70.2834 169.92 64.7773 171.052 61.5385C171.86 59.1093 174.932 56.5182 174.932 56.5182L174.285 52.6316Z" fill="#FF8A00"/>
<path d="M176.871 73.0364C178.488 74.17 180.105 75.1416 181.721 76.2752C183.338 77.2469 184.955 78.3805 186.572 79.3522C188.188 80.4858 189.805 81.6194 191.26 82.753C192.715 84.0485 194.17 85.3441 195.302 86.8016C196.434 88.2591 197.565 89.8785 198.05 91.6599C198.535 93.4412 198.859 95.3846 198.697 97.3279C198.535 99.2712 198.05 101.215 197.08 102.834C196.595 103.644 195.949 104.453 195.302 105.101C194.979 105.425 194.655 105.749 194.17 106.073C193.847 106.397 193.362 106.721 192.877 106.883C193.847 106.559 194.655 105.911 195.302 105.263C196.11 104.615 196.757 103.806 197.242 102.996C197.727 102.186 198.212 101.215 198.535 100.243C198.859 99.2712 199.02 98.2995 199.182 97.3279C199.344 96.3562 199.344 95.2226 199.182 94.251V93.4412L199.02 92.6315C199.02 92.1457 198.859 91.6599 198.697 91.174C198.05 89.2307 197.08 87.4493 195.787 85.9918C193.2 82.9149 190.128 80.6477 186.733 78.5425C185.116 77.5708 183.338 76.5991 181.721 75.6275C180.105 74.9797 178.488 74.17 176.871 73.0364Z" fill="#FF8A00"/>
<path d="M172.506 54.5748C171.051 54.7368 169.758 54.8987 168.464 55.2226C167.171 55.7084 165.878 56.3562 164.908 57.3279C163.938 58.2995 163.129 59.4331 162.644 60.7287C162.483 61.3764 162.159 62.0242 161.997 62.672C161.836 63.3198 161.836 63.9675 161.674 64.6153C161.674 65.9109 161.836 67.2064 162.321 68.502C162.806 69.7975 163.453 70.9311 164.099 72.0647C165.554 74.3319 167.333 76.4372 168.949 78.5424C170.566 80.6477 172.183 82.9149 173.476 85.3441C174.77 87.7732 175.74 90.3643 176.548 92.9554C177.357 95.5465 178.165 98.1376 179.458 100.567C180.105 101.862 180.752 102.996 181.56 103.968L182.207 104.777C182.53 104.939 182.692 105.263 183.015 105.425L183.339 105.749L183.824 106.073L184.632 106.721C182.207 105.587 180.267 103.32 178.973 100.891C177.68 98.4615 176.71 95.8704 175.74 93.2793C174.77 90.6882 173.8 88.259 172.506 85.8299C171.213 83.4007 169.596 81.2955 167.979 79.1902C166.363 77.085 164.584 74.9797 163.129 72.5505C162.321 71.4169 161.836 70.1214 161.351 68.8258C160.866 67.5303 160.704 66.0728 160.704 64.6153C160.866 63.9675 160.866 63.1578 161.027 62.51C161.189 61.8623 161.512 61.0526 161.674 60.4048C162.321 59.1092 163.129 57.8137 164.261 56.842C165.393 55.8704 166.686 55.2226 168.141 54.8987C169.758 54.5748 171.213 54.5748 172.506 54.5748Z" fill="#FF8A00"/>
<path d="M174.608 50.8501C173.638 50.6882 172.344 51.3359 172.021 51.9837C171.859 52.6315 173.476 57.4898 174.608 57.9756C175.74 58.4615 177.033 56.5181 177.033 56.5181L174.608 50.8501Z" fill="#FFC727"/>
<path d="M195.949 45.3441C199.991 58.4615 192.554 62.3481 189.805 63.3198C187.219 64.1295 178.326 66.5587 172.991 53.9271C167.656 41.2955 172.344 35.3036 178.165 33.1983C183.985 30.7692 191.907 32.2267 195.949 45.3441Z" fill="white"/>
<path d="M195.949 45.3441C197.081 48.9068 197.728 52.9554 196.596 56.6801C195.949 58.4615 194.979 60.2429 193.362 61.3765C191.907 62.672 189.967 63.4817 188.189 63.8056C186.249 64.2915 184.309 64.2915 182.368 63.8056C180.428 63.3198 178.65 62.3481 177.357 60.8906C174.608 58.1376 172.83 54.5749 171.536 50.8502C170.405 47.1255 169.758 43.0769 171.051 39.3522C172.345 35.6275 176.063 33.0364 179.782 32.2267C181.722 31.7408 183.662 31.7408 185.602 32.3886C187.542 32.8745 189.159 34.0081 190.452 35.3036C191.907 36.5991 192.877 38.2186 193.847 40C194.656 41.6194 195.302 43.5627 195.949 45.3441ZM195.949 45.3441C195.302 43.5627 194.656 41.7813 193.686 40C192.877 38.3805 191.746 36.7611 190.29 35.4655C188.835 34.17 187.219 33.1983 185.44 32.7125C183.662 32.2267 181.722 32.2267 179.782 32.7125C176.063 33.5222 172.83 36.1133 171.698 39.6761C170.405 43.2388 171.051 47.1255 172.345 50.6882C173.476 54.251 175.255 57.8137 177.842 60.4048C179.135 61.7004 180.752 62.672 182.53 63.1579C184.309 63.6437 186.249 63.6437 188.027 63.3198C189.967 62.9959 191.746 62.1862 193.201 61.0526C194.656 59.919 195.787 58.2995 196.434 56.3562C197.566 52.9554 196.919 48.9068 195.949 45.3441Z" fill="#363B4D"/>
<path d="M193.362 43.5628C193.039 43.5628 192.715 43.5628 192.392 43.5628C192.069 43.5628 191.745 43.5628 191.422 43.4009C191.26 43.239 191.099 43.077 191.26 42.7531C191.422 42.2673 191.907 42.2673 192.392 42.1053C192.877 42.1053 193.2 42.1053 193.685 42.4292C194.009 42.9151 193.847 43.5628 193.362 43.5628Z" fill="#363B4D"/>
<path d="M184.308 46.1538C184.632 45.9919 184.793 45.8299 185.117 45.668C185.44 45.506 185.763 45.3441 185.925 45.0202C186.087 44.8583 185.925 44.5344 185.763 44.3724C185.44 44.0485 184.955 44.2105 184.47 44.3724C183.985 44.5344 183.823 44.8583 183.5 45.3441C183.5 45.9919 183.985 46.3158 184.308 46.1538Z" fill="#363B4D"/>
<path d="M186.249 48.0971C184.793 48.421 185.602 51.3359 186.895 51.0121C188.35 50.8501 187.542 47.9351 186.249 48.0971Z" fill="#363B4D"/>
<path d="M185.763 48.421C185.602 48.583 185.44 49.0688 185.117 49.0688C184.793 49.2307 184.47 48.9068 184.146 48.7449C184.308 49.2307 184.632 49.8785 185.278 49.7166C185.925 49.7166 186.087 49.0688 186.087 48.421C185.925 48.421 185.763 48.421 185.763 48.421Z" fill="#363B4D"/>
<path d="M192.878 46.1538C194.333 45.6679 195.141 48.5829 193.848 49.0687C192.554 49.3926 191.746 46.4777 192.878 46.1538Z" fill="#363B4D"/>
<path d="M193.524 46.1538C193.847 46.3157 194.171 46.4776 194.332 46.3157C194.656 46.3157 194.817 45.8299 194.979 45.506C195.141 45.9918 195.141 46.6396 194.656 46.9635C194.171 47.2874 193.686 46.8015 193.362 46.3157C193.362 46.3157 193.362 46.1538 193.524 46.1538Z" fill="#363B4D"/>
<path d="M188.512 55.5465C188.835 55.8704 188.997 56.5182 189.482 56.5182C189.967 56.6801 190.452 56.5182 190.937 56.3562C190.937 56.3562 190.937 56.3562 190.937 56.5182C190.452 57.004 189.805 57.1659 189.158 57.004C188.673 56.8421 188.512 56.1943 188.512 55.5465Z" fill="#363B4D"/>
<path d="M192.069 51.9838C192.069 51.9838 192.554 53.2794 192.877 53.9271C192.877 53.9271 192.716 54.0891 192.554 54.0891C191.422 54.5749 190.29 54.5749 189.32 53.7652V53.6033C190.29 53.9271 191.261 53.9271 192.231 53.6033C192.231 53.4413 191.261 51.498 191.261 51.3361C191.584 51.1741 192.392 51.1741 192.716 51.3361C191.584 48.583 190.129 46.1539 188.997 43.4008C188.997 43.2389 189.159 43.2389 189.159 43.2389C190.937 45.83 192.231 48.9069 193.524 51.6599C193.847 52.1458 192.392 51.9838 192.069 51.9838Z" fill="#363B4D"/>
<path d="M194.979 42.4292C195.464 44.2106 195.949 46.1539 196.273 47.9353C196.596 49.8786 196.919 51.66 196.758 53.6033C196.758 55.5466 196.111 57.328 195.141 58.9474C194.171 60.5669 192.716 61.8624 190.938 62.6721C192.716 62.0243 194.333 60.7288 195.464 59.1094C195.949 58.2996 196.434 57.4899 196.758 56.5183C197.081 55.5466 197.243 54.5749 197.243 53.6033C197.404 51.66 197.081 49.7166 196.596 47.7733C196.273 46.1539 195.626 44.2106 194.979 42.4292Z" fill="#363B4D"/>
<path d="M173.8 53.2793C176.387 53.2793 176.225 47.4494 176.225 47.4494C176.225 47.4494 186.734 44.2105 186.41 35.4656C186.41 35.4656 188.997 40.8097 194.817 42.5911C194.817 42.5911 193.201 33.0364 185.44 32.2267C185.44 32.2267 175.578 29.9595 171.213 38.2186C167.009 46.1538 172.021 53.2793 173.8 53.2793Z" fill="#FF8A00"/>
<path d="M186.41 34.6559C186.733 35.9514 186.733 37.4089 186.41 38.7045C186.087 40 185.602 41.2956 184.793 42.4292C184.632 42.7531 184.308 42.915 184.147 43.2389L183.823 43.5628C183.662 43.7247 183.5 43.7247 183.5 43.8867C183.177 44.0486 183.015 44.3725 182.691 44.5344C182.368 44.6964 182.206 44.8583 181.883 45.1822C181.721 45.3441 181.56 45.3442 181.398 45.5061L180.913 45.83L179.943 46.3158C179.296 46.6397 178.65 46.8016 178.003 46.9636C178.65 46.6397 179.135 46.3158 179.781 45.9919L180.59 45.5061L181.075 45.1822C181.236 45.0203 181.398 45.0203 181.398 44.8583C181.721 44.6964 181.883 44.3725 182.206 44.2105C182.368 44.0486 182.691 43.7247 182.853 43.5628L183.177 43.2389L183.5 42.915C183.662 42.5911 183.985 42.4292 184.147 42.1053C184.955 40.9717 185.44 39.8381 185.763 38.5425C185.925 37.8948 186.087 37.247 186.087 36.5992C186.41 35.9514 186.41 35.3037 186.41 34.6559Z" fill="#FF8A00"/>
<path d="M175.902 52.3077C175.902 52.3077 172.345 49.2308 170.728 50.6883C169.112 52.1458 172.507 57.8138 174.932 58.1377C175.094 58.1377 175.417 58.1377 175.579 58.1377C175.74 58.1377 176.064 58.1377 176.225 57.9758C176.549 57.8138 176.71 57.6519 176.872 57.4899C177.034 57.328 177.195 57.166 177.357 57.0041C177.68 56.5183 177.68 56.1944 177.68 56.1944" fill="white"/>
<path d="M175.902 52.3077C175.255 51.8218 174.608 51.336 173.962 51.0121C173.315 50.6882 172.507 50.3643 171.698 50.3643C171.375 50.3643 171.052 50.5263 170.728 50.8502C170.405 51.0121 170.405 51.4979 170.405 51.8218C170.405 52.6315 170.728 53.2793 171.052 53.9271C171.698 55.2226 172.668 56.6801 173.962 57.4898C174.608 57.9757 175.417 57.9757 176.225 57.8137C176.549 57.6518 176.872 57.4898 177.195 57.166C177.519 56.8421 177.68 56.5182 177.68 56.1943C177.68 56.5182 177.519 57.004 177.195 57.3279C177.034 57.6518 176.71 57.9757 176.225 58.1376C175.417 58.4615 174.608 58.2996 173.8 57.9757C172.345 57.166 171.375 55.7085 170.567 54.4129C170.243 53.6032 169.92 52.9554 169.92 51.9838C169.92 51.4979 169.92 51.0121 170.405 50.6882C170.728 50.3643 171.213 50.2024 171.537 50.2024C173.315 50.2024 174.608 51.1741 175.902 52.3077Z" fill="#363B4D"/>
<path d="M171.698 52.1456C171.537 52.1456 171.537 52.3076 171.698 52.1456C173.477 52.4695 174.609 53.7651 175.417 55.2226C174.77 54.7367 174.124 54.5748 173.477 55.2226C173.477 55.2226 173.477 55.3845 173.477 55.2226C174.124 54.8987 174.609 54.8987 175.094 55.3845C175.417 55.7084 175.74 56.0323 176.064 56.5181C176.225 56.68 176.387 56.5181 176.387 56.3562C175.902 54.4128 173.8 51.9837 171.698 52.1456Z" fill="#363B4D"/>
<path d="M174.932 57.4898C175.093 57.8137 175.417 57.9757 175.74 57.8137C176.063 57.6518 176.225 57.3279 176.063 57.004C175.902 56.6801 175.578 56.5182 175.255 56.6801C174.932 56.6801 174.77 57.1659 174.932 57.4898Z" fill="white"/>
<path d="M173.476 56.842C173.638 57.004 173.799 57.1659 174.123 57.004C174.284 56.8421 174.446 56.6801 174.285 56.3562C174.123 56.1943 173.961 56.0323 173.638 56.1943C173.476 56.3562 173.314 56.5182 173.476 56.842Z" fill="white"/>
<path d="M54.1615 156.923C54.9699 162.105 54.6465 167.449 53.3532 172.47C52.7065 174.899 51.8981 177.166 50.928 179.271C49.6346 182.186 48.3412 184.939 48.6646 188.016C48.9879 188.178 47.8562 188.178 47.8562 187.854C39.2875 183.158 28.4553 182.186 21.9883 174.575C18.9165 170.85 17.2997 166.316 16.6531 161.619C15.8447 156.599 15.683 150.931 16.9764 145.911C18.1081 141.7 20.6949 137.652 24.7368 135.547C28.9403 133.441 34.4372 133.603 38.8025 134.899C48.0179 137.976 52.7065 148.016 54.1615 156.923Z" fill="#5EE67B"/>
<path d="M82.778 185.263C76.6344 187.045 70.4908 188.664 64.3471 190.445C63.8621 190.607 53.515 171.174 57.2335 161.134C60.6286 151.903 68.5507 144.939 78.0895 141.862C82.4547 140.405 87.7899 139.109 92.4785 140.243C96.5204 141.053 99.4305 144.453 100.886 148.178C102.664 153.36 102.017 159.514 101.047 164.696C100.077 169.555 98.2988 174.413 95.0653 178.138C91.6701 181.862 87.4666 183.806 82.778 185.263Z" fill="#5EE67B"/>
<path d="M10.0241 193.846C11.8025 199.352 16.006 207.126 22.7964 207.126C27.1616 207.126 31.5268 206.64 35.892 206.64C40.5805 206.64 45.2691 206.64 49.9577 206.802C50.281 206.802 49.4726 193.036 38.1554 186.235C34.9219 184.291 31.2034 183.806 27.4849 182.996C23.4431 182.186 19.0778 181.538 14.8743 181.7C12.2875 181.862 10.1857 182.348 9.2157 184.939C8.40733 187.854 9.2157 191.093 10.0241 193.846Z" fill="#5EE67B"/>
<path d="M69.1974 204.858C69.0357 205.02 69.3591 205.182 69.5207 205.02L69.6824 205.182C74.2093 206.154 78.8979 207.126 83.4247 207.611C87.1432 207.935 91.5085 208.097 94.7419 205.992C99.1072 203.077 102.017 195.466 99.7539 190.607C97.0054 184.777 88.4366 188.016 84.0714 189.96C77.4428 193.037 72.1075 198.381 69.1974 204.858Z" fill="#5EE67B"/>
<path d="M58.5264 218.623C57.3947 214.899 56.263 211.012 54.9696 207.287C52.7061 199.838 50.281 192.551 47.5326 185.263C45.9158 180.891 44.2991 176.518 42.5206 172.308C42.844 169.555 43.0057 166.964 43.4907 164.211C44.1374 160.972 45.2691 157.895 46.2392 154.656C46.2392 154.494 45.9158 154.332 45.9158 154.494C43.9757 158.866 41.5506 164.372 41.3889 169.555C39.2872 164.696 37.0237 160 34.7603 155.304C34.5986 151.255 34.4369 147.368 35.0836 143.32C35.0836 143.158 34.7603 143.158 34.7603 143.32C34.1136 146.721 33.6285 150.283 33.9519 153.846C32.1735 150.283 30.2334 146.883 28.1316 143.32C27.9699 142.996 27.4849 143.32 27.6466 143.644C30.8801 149.636 33.7902 155.789 36.5387 162.105C32.6585 158.704 27.9699 156.275 23.2814 154.494C23.1197 154.494 22.958 154.656 23.1197 154.818C28.6166 157.085 33.1435 160.162 37.5087 164.211C39.4488 168.745 41.3889 173.441 43.1673 177.976C37.8321 172.794 30.5567 169.555 23.6047 167.773C23.4431 167.773 23.2814 168.097 23.6047 168.097C31.6885 170.526 37.9938 175.061 44.2991 180.405C44.9458 182.348 45.7541 184.13 46.4008 186.073C48.9876 193.198 51.5744 200.324 53.8379 207.611C54.9696 211.012 56.1013 214.575 57.233 217.976C58.3647 221.7 59.3348 225.587 60.9515 229.312C61.1132 229.636 61.7599 229.636 61.5982 229.15C60.7899 225.587 59.4965 222.024 58.5264 218.623Z" fill="#363B4D"/>
<path d="M91.5075 166.802C87.6273 168.745 83.7471 170.041 79.5436 171.498C76.9568 172.308 74.0467 173.117 71.6215 174.413C74.2083 168.745 76.9568 163.239 80.0286 157.733C83.9088 156.599 88.1123 154.818 91.1842 152.065C91.3458 151.903 91.1842 151.741 91.0225 151.741C87.789 154.008 84.2321 155.304 80.5136 156.923C81.322 155.466 82.1304 154.008 82.9388 152.551C83.1004 152.065 82.6154 151.741 82.2921 152.065C79.0586 156.599 76.1484 161.458 73.5616 166.316C72.9149 161.943 72.7533 157.733 72.9149 153.198C72.9149 153.037 72.7533 153.037 72.7533 153.198C71.9449 157.895 72.1066 162.915 72.9149 167.611C70.8132 171.822 68.8731 176.032 67.0947 180.405C66.448 177.814 65.4779 175.223 64.8312 172.632C64.0228 168.907 63.5378 165.02 64.0228 161.134C64.0228 160.972 63.8612 160.972 63.8612 161.134C62.7295 167.935 63.6995 175.709 66.448 182.348C65.4779 184.939 64.5079 187.53 63.5378 190.283C59.0109 203.725 56.1008 217.652 55.4541 231.903C55.4541 232.227 55.9391 232.227 55.9391 231.903C57.5559 217.976 60.466 204.049 64.9929 190.769C66.7713 185.587 68.8731 180.405 70.9749 175.547C74.5317 174.575 78.2502 173.117 81.807 171.822C85.2022 170.688 88.759 169.231 91.6692 167.126C91.8308 166.964 91.6692 166.802 91.5075 166.802Z" fill="#363B4D"/>
<path d="M14.8741 186.883C17.6225 187.53 20.371 188.34 23.1195 189.15C22.3111 188.34 21.6644 187.692 20.856 187.044C19.7243 186.073 18.4309 185.263 17.1375 184.453C16.9758 184.453 17.1375 184.129 17.2992 184.291C19.7243 185.263 22.4728 187.206 23.9278 189.474C27.323 190.607 30.7182 191.741 33.9516 193.036C36.2151 194.008 38.4785 195.142 40.4186 196.437C39.7719 195.142 38.9636 193.684 38.1552 192.389C36.7001 190.445 34.5983 189.474 32.6582 188.016C32.4966 187.854 32.6582 187.692 32.8199 187.692C37.1851 189.636 39.9336 192.712 41.5503 197.085C43.8138 198.704 45.9156 200.648 48.0173 202.753C55.4543 211.012 61.4363 222.186 61.4363 233.36C61.4363 233.684 60.9513 233.684 60.9513 233.36C58.8495 222.186 54.3226 212.146 46.7239 203.401C46.2389 202.753 45.5922 202.267 45.1072 201.619C43.0054 201.457 41.0653 201.134 38.9636 201.134C36.5384 201.134 34.1133 201.457 31.8499 201.619C27.9697 201.943 23.6045 201.943 20.0476 200C19.886 199.838 20.0476 199.676 20.2093 199.676C28.1314 202.429 36.3768 198.866 44.2988 200.648C40.9036 197.409 37.0235 195.142 32.6582 193.198C32.4966 193.036 32.1732 193.036 31.8499 192.874C26.838 193.522 21.341 194.818 16.4908 193.198C16.3291 193.198 16.3291 192.874 16.4908 193.036C21.341 194.17 25.8679 192.712 30.5565 192.551C25.3829 190.607 20.2093 188.988 15.0357 187.044C14.389 187.044 14.389 186.721 14.8741 186.883Z" fill="#363B4D"/>
<path d="M65.8014 207.611C68.3882 205.182 71.1366 203.239 74.0468 201.458C75.9868 198.057 79.2203 195.304 82.4538 193.198C82.6155 193.036 82.7772 193.36 82.6155 193.522C79.867 195.628 77.6036 198.057 75.6635 200.81C78.897 199.028 82.4538 197.571 86.0107 196.275C87.3041 194.008 89.2442 191.903 91.5076 190.769C91.5076 190.769 91.6693 190.769 91.5076 190.769C89.5675 192.227 87.9508 193.846 86.4957 195.951C88.5975 195.142 90.6992 194.494 92.801 193.846C92.9627 193.846 93.1243 194.008 92.9627 194.17C89.2442 195.628 85.364 197.085 81.6455 198.866C86.334 199.514 90.5376 199.676 95.3878 198.866C95.5495 198.866 95.5495 199.028 95.3878 199.028C90.6992 200.324 85.5256 200.486 80.8371 199.19C78.412 200.324 76.1485 201.619 73.8851 202.915C75.6635 202.753 77.6036 203.077 79.5437 203.401C82.7772 204.049 86.0107 204.534 89.4058 204.534C89.5675 204.534 89.5675 204.696 89.4058 204.696C83.7472 205.668 78.2503 203.077 72.5917 203.725C70.4899 205.182 68.5498 206.64 66.7714 208.421C63.2146 211.822 60.3044 215.87 58.2027 220.243C55.7775 224.939 54.4841 229.96 52.5441 234.98C52.3824 235.142 52.2207 235.142 52.2207 234.818C53.6758 225.101 58.6877 214.413 65.8014 207.611Z" fill="#363B4D"/>
<path d="M42.3594 222.834L43.1677 231.255L45.5929 259.433H68.0656L71.2991 231.255L72.2692 222.834H42.3594Z" fill="#363B4D"/>
<path opacity="0.26" d="M42.3594 222.834L43.1677 231.255H71.2991L72.2692 222.834H42.3594Z" fill="#DFF7FE"/>
<path d="M40.1918 227.451H74.4668V220.65H40.1918V227.451Z" fill="#363B4D"/>
</svg>
