<svg width="343" height="33" viewBox="0 0 343 33" fill="none" xmlns="http://www.w3.org/2000/svg">
<path d="M12.7266 28.6944L6.16309 22.1384L6.16309 15.6074L12.7266 22.1454L25.8372 9.08203L25.8372 15.6201L12.7266 28.6944Z" fill="#363B4D" fill-opacity="0.9"/>
<path d="M12.7075 15.7111L12.7075 9.17115L19.2743 2.62036L19.2743 9.17115L12.7075 15.7111Z" fill="#363B4D" fill-opacity="0.9"/>
<path d="M41.2784 22.25V10.6136H43.0341V16.1705H43.1761L48.0568 10.6136H50.267L45.5739 15.8523L50.2841 22.25H48.1705L44.4091 17.0511L43.0341 18.6307V22.25H41.2784ZM51.9034 22.25V10.6136H56.0511C56.9527 10.6136 57.7008 10.7689 58.2955 11.0795C58.8939 11.3902 59.3409 11.8201 59.6364 12.3693C59.9318 12.9148 60.0795 13.5455 60.0795 14.2614C60.0795 14.9735 59.9299 15.6004 59.6307 16.142C59.3352 16.6799 58.8883 17.0985 58.2898 17.3977C57.6951 17.697 56.947 17.8466 56.0455 17.8466H52.9034V16.3352H55.8864C56.4545 16.3352 56.9167 16.2538 57.2727 16.0909C57.6326 15.928 57.8958 15.6913 58.0625 15.3807C58.2292 15.0701 58.3125 14.697 58.3125 14.2614C58.3125 13.822 58.2273 13.4413 58.0568 13.1193C57.8902 12.7973 57.6269 12.5511 57.267 12.3807C56.911 12.2064 56.4432 12.1193 55.8636 12.1193H53.6591V22.25H51.9034ZM57.6477 17L60.5227 22.25H58.5227L55.7045 17H57.6477ZM63.9716 10.6136V22.25H62.2159V10.6136H63.9716ZM66.5284 22.25V10.6136H70.6761C71.5814 10.6136 72.3314 10.7784 72.9261 11.108C73.5208 11.4375 73.9659 11.8883 74.2614 12.4602C74.5568 13.0284 74.7045 13.6686 74.7045 14.3807C74.7045 15.0966 74.5549 15.7405 74.2557 16.3125C73.9602 16.8807 73.5133 17.3314 72.9148 17.6648C72.3201 17.9943 71.572 18.1591 70.6705 18.1591H67.8182V16.6705H70.5114C71.0833 16.6705 71.5473 16.572 71.9034 16.375C72.2595 16.1742 72.5208 15.9015 72.6875 15.5568C72.8542 15.2121 72.9375 14.8201 72.9375 14.3807C72.9375 13.9413 72.8542 13.5511 72.6875 13.2102C72.5208 12.8693 72.2576 12.6023 71.8977 12.4091C71.5417 12.2159 71.072 12.1193 70.4886 12.1193H68.2841V22.25H66.5284ZM76.1889 12.125V10.6136H85.1946V12.125H81.5639V22.25H79.8139V12.125H76.1889ZM96.7926 16.4318C96.7926 17.6742 96.5653 18.7424 96.1108 19.6364C95.6563 20.5265 95.0331 21.2121 94.2415 21.6932C93.4536 22.1705 92.5578 22.4091 91.554 22.4091C90.5464 22.4091 89.6468 22.1705 88.8551 21.6932C88.0672 21.2121 87.446 20.5246 86.9915 19.6307C86.5369 18.7367 86.3097 17.6705 86.3097 16.4318C86.3097 15.1894 86.5369 14.1231 86.9915 13.233C87.446 12.339 88.0672 11.6534 88.8551 11.1761C89.6468 10.6951 90.5464 10.4545 91.554 10.4545C92.5578 10.4545 93.4536 10.6951 94.2415 11.1761C95.0331 11.6534 95.6563 12.339 96.1108 13.233C96.5653 14.1231 96.7926 15.1894 96.7926 16.4318ZM95.054 16.4318C95.054 15.4848 94.9006 14.6875 94.5938 14.0398C94.2907 13.3883 93.8741 12.8958 93.3438 12.5625C92.8172 12.2254 92.2206 12.0568 91.554 12.0568C90.8835 12.0568 90.285 12.2254 89.7585 12.5625C89.232 12.8958 88.8153 13.3883 88.5085 14.0398C88.2055 14.6875 88.054 15.4848 88.054 16.4318C88.054 17.3788 88.2055 18.178 88.5085 18.8295C88.8153 19.4773 89.232 19.9697 89.7585 20.3068C90.285 20.6402 90.8835 20.8068 91.554 20.8068C92.2206 20.8068 92.8172 20.6402 93.3438 20.3068C93.8741 19.9697 94.2907 19.4773 94.5938 18.8295C94.9006 18.178 95.054 17.3788 95.054 16.4318ZM99.4205 10.6136L102.659 20.0909H102.79L106.028 10.6136H107.926L103.739 22.25H101.71L97.5227 10.6136H99.4205ZM109.607 22.25V10.6136H116.902V12.125H111.362V15.6705H116.521V17.1761H111.362V20.7386H116.97V22.25H109.607ZM128.912 14.3977H127.139C127.071 14.0189 126.944 13.6856 126.759 13.3977C126.573 13.1098 126.346 12.8655 126.077 12.6648C125.808 12.464 125.507 12.3125 125.173 12.2102C124.844 12.108 124.493 12.0568 124.122 12.0568C123.452 12.0568 122.851 12.2254 122.321 12.5625C121.795 12.8996 121.378 13.3939 121.071 14.0455C120.768 14.697 120.616 15.4924 120.616 16.4318C120.616 17.3788 120.768 18.178 121.071 18.8295C121.378 19.4811 121.796 19.9735 122.327 20.3068C122.857 20.6402 123.454 20.8068 124.116 20.8068C124.484 20.8068 124.832 20.7576 125.162 20.6591C125.495 20.5568 125.796 20.4072 126.065 20.2102C126.334 20.0133 126.562 19.7727 126.747 19.4886C126.937 19.2008 127.067 18.8712 127.139 18.5L128.912 18.5057C128.817 19.0777 128.634 19.6042 128.361 20.0852C128.092 20.5625 127.745 20.9754 127.321 21.3239C126.901 21.6686 126.42 21.9356 125.878 22.125C125.336 22.3144 124.745 22.4091 124.105 22.4091C123.098 22.4091 122.2 22.1705 121.412 21.6932C120.624 21.2121 120.003 20.5246 119.548 19.6307C119.098 18.7367 118.872 17.6705 118.872 16.4318C118.872 15.1894 119.099 14.1231 119.554 13.233C120.009 12.339 120.63 11.6534 121.418 11.1761C122.205 10.6951 123.101 10.4545 124.105 10.4545C124.723 10.4545 125.298 10.5436 125.832 10.7216C126.37 10.8958 126.853 11.1534 127.281 11.4943C127.709 11.8314 128.063 12.2443 128.344 12.733C128.624 13.2178 128.813 13.7727 128.912 14.3977ZM131.013 22.25V10.6136H132.768V15.6705H138.57V10.6136H140.331V22.25H138.57V17.1761H132.768V22.25H131.013ZM142.888 22.25V10.6136H150.183V12.125H144.643V15.6705H149.803V17.1761H144.643V20.7386H150.251V22.25H142.888Z" fill="#363B4D" fill-opacity="0.9"/>
</svg>
