<svg width="157" height="30" viewBox="0 0 157 30" fill="none" xmlns="http://www.w3.org/2000/svg">
<g opacity="0.7">
<path d="M7.67314 30L0 22.4569V14.9425L7.67314 22.465L23 7.43469V14.9572L7.67314 30Z" fill="#4A4F5F"/>
<path d="M7.65051 15.0618V7.53712L15.3275 0V7.53712L7.65051 15.0618Z" fill="#4A4F5F"/>
</g>
<path opacity="0.7" d="M32.4382 25V11.9091H34.4134V18.1605H34.5732L40.0639 11.9091H42.5504L37.2706 17.8026L42.5696 25H40.1918L35.9602 19.1513L34.4134 20.9283V25H32.4382ZM44.3913 25V11.9091H49.0575C50.0717 11.9091 50.9134 12.0838 51.5824 12.4332C52.2557 12.7827 52.7585 13.2663 53.0909 13.8842C53.4233 14.4979 53.5895 15.2074 53.5895 16.0128C53.5895 16.8139 53.4212 17.5192 53.0845 18.1286C52.7521 18.7337 52.2493 19.2045 51.576 19.5412C50.907 19.8778 50.0653 20.0462 49.0511 20.0462H45.5163V18.3459H48.8722C49.5114 18.3459 50.0313 18.2543 50.4318 18.071C50.8366 17.8878 51.1328 17.6214 51.3203 17.272C51.5078 16.9226 51.6016 16.5028 51.6016 16.0128C51.6016 15.5185 51.5057 15.0902 51.3139 14.728C51.1264 14.3658 50.8303 14.0888 50.4254 13.897C50.0249 13.701 49.4986 13.603 48.8466 13.603H46.3665V25H44.3913ZM50.8537 19.0938L54.0881 25H51.8381L48.6676 19.0938H50.8537ZM57.968 11.9091V25H55.9929V11.9091H57.968ZM60.8445 25V11.9091H65.5107C66.5291 11.9091 67.3729 12.0945 68.0419 12.4652C68.7109 12.8359 69.2116 13.343 69.544 13.9865C69.8764 14.6257 70.0426 15.3459 70.0426 16.147C70.0426 16.9524 69.8743 17.6768 69.5376 18.3203C69.2053 18.9595 68.7024 19.4666 68.0291 19.8416C67.3601 20.2124 66.5185 20.3977 65.5043 20.3977H62.2955V18.723H65.3253C65.9688 18.723 66.4908 18.6122 66.8913 18.3906C67.2919 18.1648 67.5859 17.858 67.7734 17.4702C67.9609 17.0824 68.0547 16.6413 68.0547 16.147C68.0547 15.6527 67.9609 15.2138 67.7734 14.8303C67.5859 14.4467 67.2898 14.1463 66.8849 13.929C66.4844 13.7116 65.956 13.603 65.2997 13.603H62.8196V25H60.8445ZM71.7125 13.6094V11.9091H81.8439V13.6094H77.7594V25H75.7907V13.6094H71.7125ZM94.8917 18.4545C94.8917 19.8523 94.636 21.054 94.1246 22.0597C93.6133 23.0611 92.9123 23.8324 92.0217 24.3736C91.1353 24.9105 90.1275 25.179 88.9982 25.179C87.8647 25.179 86.8526 24.9105 85.962 24.3736C85.0756 23.8324 84.3768 23.0589 83.8654 22.0533C83.354 21.0476 83.0984 19.848 83.0984 18.4545C83.0984 17.0568 83.354 15.8572 83.8654 14.8558C84.3768 13.8501 85.0756 13.0788 85.962 12.5419C86.8526 12.0007 87.8647 11.7301 88.9982 11.7301C90.1275 11.7301 91.1353 12.0007 92.0217 12.5419C92.9123 13.0788 93.6133 13.8501 94.1246 14.8558C94.636 15.8572 94.8917 17.0568 94.8917 18.4545ZM92.9357 18.4545C92.9357 17.3892 92.7631 16.4922 92.418 15.7635C92.0771 15.0305 91.6083 14.4766 91.0117 14.1016C90.4194 13.7223 89.7482 13.5327 88.9982 13.5327C88.244 13.5327 87.5707 13.7223 86.9783 14.1016C86.386 14.4766 85.9173 15.0305 85.5721 15.7635C85.2312 16.4922 85.0607 17.3892 85.0607 18.4545C85.0607 19.5199 85.2312 20.419 85.5721 21.152C85.9173 21.8807 86.386 22.4347 86.9783 22.8139C87.5707 23.1889 88.244 23.3764 88.9982 23.3764C89.7482 23.3764 90.4194 23.1889 91.0117 22.8139C91.6083 22.4347 92.0771 21.8807 92.418 21.152C92.7631 20.419 92.9357 19.5199 92.9357 18.4545ZM97.848 11.9091L101.491 22.571H101.638L105.282 11.9091H107.417L102.706 25H100.424L95.7131 11.9091H97.848ZM109.307 25V11.9091H117.515V13.6094H111.282V17.598H117.086V19.2919H111.282V23.2997H117.591V25H109.307ZM131.026 16.1662H129.032C128.955 15.7401 128.812 15.3651 128.603 15.0412C128.395 14.7173 128.139 14.4425 127.836 14.2166C127.534 13.9908 127.195 13.8203 126.82 13.7053C126.449 13.5902 126.055 13.5327 125.637 13.5327C124.883 13.5327 124.208 13.7223 123.611 14.1016C123.019 14.4808 122.55 15.0369 122.205 15.7699C121.864 16.5028 121.694 17.3977 121.694 18.4545C121.694 19.5199 121.864 20.419 122.205 21.152C122.55 21.8849 123.021 22.4389 123.618 22.8139C124.214 23.1889 124.885 23.3764 125.631 23.3764C126.044 23.3764 126.436 23.321 126.807 23.2102C127.182 23.0952 127.521 22.9268 127.824 22.7053C128.126 22.4837 128.382 22.2131 128.591 21.8935C128.804 21.5696 128.951 21.1989 129.032 20.7812L131.026 20.7876C130.919 21.4311 130.713 22.0234 130.406 22.5646C130.103 23.1016 129.713 23.5661 129.236 23.9581C128.763 24.3459 128.222 24.6463 127.613 24.8594C127.003 25.0724 126.338 25.179 125.618 25.179C124.485 25.179 123.475 24.9105 122.588 24.3736C121.702 23.8324 121.003 23.0589 120.492 22.0533C119.985 21.0476 119.731 19.848 119.731 18.4545C119.731 17.0568 119.987 15.8572 120.498 14.8558C121.01 13.8501 121.708 13.0788 122.595 12.5419C123.481 12.0007 124.489 11.7301 125.618 11.7301C126.313 11.7301 126.961 11.8303 127.561 12.0305C128.167 12.2266 128.71 12.5163 129.191 12.8999C129.673 13.2791 130.071 13.7436 130.387 14.2933C130.702 14.8388 130.915 15.4631 131.026 16.1662ZM133.389 25V11.9091H135.365V17.598H141.891V11.9091H143.872V25H141.891V19.2919H135.365V25H133.389ZM146.749 25V11.9091H154.956V13.6094H148.724V17.598H154.528V19.2919H148.724V23.2997H155.033V25H146.749Z" fill="#4A4F5F"/>
</svg>
