<svg width="198" height="28" viewBox="0 0 198 28" fill="none" xmlns="http://www.w3.org/2000/svg">
<path fill-rule="evenodd" clip-rule="evenodd" d="M145.67 21.6183C146.408 22.6027 146.972 23.5636 146.972 24.8445C146.972 26.0527 146.479 26.7053 145.494 26.8012C145.4 26.826 145.259 26.8374 145.072 26.8374C144.813 26.8374 144.603 26.7899 144.438 26.6923C144.297 26.5716 144.227 26.4269 144.227 26.2575C144.227 26.1368 144.286 25.9682 144.403 25.7499C144.52 25.5089 144.579 25.3033 144.579 25.1338C144.579 24.892 144.368 24.7718 143.945 24.7718C143.311 24.9404 142.725 25.0973 142.185 25.2423C141.988 25.2955 141.798 25.3468 141.613 25.3965C141.292 25.483 140.99 25.5644 140.707 25.641C140.449 25.641 140.227 25.7381 140.039 25.9316C139.874 26.0998 139.792 26.2457 139.792 26.3664C139.792 27.1149 141.223 27.49 144.086 27.49C145.376 27.49 146.537 27.3933 147.57 27.1999C148.626 26.9825 149.576 26.6322 150.42 26.1486C151.265 25.6658 152.212 24.9341 152.966 24.1868L152.996 24.1575C153.854 23.3089 154.538 22.632 155.281 21.4135C156.033 20.1805 156.626 18.7171 156.96 17.0144C157.295 15.3113 157.4 13.3079 157.042 12.0476L151.84 12.4463C152.837 17.0367 152.576 20.9812 150.851 24.1486C149.983 25.7419 148.582 26.6578 147.042 26.8008C148.45 26.0035 149.154 24.8315 149.154 23.2852C149.154 21.5935 148.332 19.3462 146.691 16.543C144.649 13.0872 143.453 10.8638 143.101 9.8731C150.21 9.60691 153.764 9.01523 153.764 8.09724C153.764 7.63803 153.436 7.28731 152.779 7.04593C152.145 6.78016 151.383 6.57452 150.491 6.42944L150.527 6.57452C150.527 7.13046 149.787 7.66157 148.309 8.16956C147.558 8.43533 146.737 8.66494 145.846 8.85796C144.978 9.0514 144.016 9.20867 142.96 9.32936C142.772 8.72549 142.632 8.1456 142.537 7.58966C142.443 7.03374 142.397 6.48958 142.397 5.95846C142.397 2.8651 143.958 1.31885 146.127 1.31885C148.38 1.31885 149.79 2.69605 150.494 5.45089H155.771C154.926 2.30917 152.04 0.738525 147.112 0.738525C145.752 0.738525 144.543 0.968128 143.487 1.42692C142.432 1.86216 138.083 3.7339 138.083 9.80119C138.083 14.539 141.815 17.9596 144.123 20.0751C144.811 20.7051 145.372 21.2194 145.67 21.6183ZM127.73 8.63674C127.541 8.54129 127.342 8.44541 127.131 8.35037C127.975 9.28098 129.16 10.3436 130.686 11.5375C134.885 14.8079 136.985 18.5089 136.985 22.6385C136.985 24.0947 136.704 25.6111 136.141 27.1868H118.473V26.757H120.866V4.05222C120.866 2.78687 121.312 1.92732 122.204 1.47357C123.096 0.996702 124.315 0.757424 125.864 0.757424C126.709 0.757424 127.623 0.829754 128.608 0.973152C129.594 1.11613 130.51 1.36635 131.354 1.72506C132.199 2.05937 132.903 2.52404 133.466 3.12118C134.029 3.7179 134.31 4.45844 134.31 5.34196C134.31 5.77173 134.216 6.16534 134.029 6.52362C133.865 6.88191 133.583 7.20362 133.184 7.49083C132.597 7.92019 131.952 8.24272 131.248 8.4576C130.545 8.67249 129.712 8.77972 128.75 8.77972C128.281 8.77972 127.94 8.73262 127.73 8.63674ZM126.075 7.77678V26.757H130.158C131.283 24.5371 131.847 22.0897 131.847 19.4156C131.847 16.3117 131.073 13.8765 129.524 12.1098C128.632 11.1069 127.905 10.26 127.341 9.56736C126.779 8.85122 126.356 8.25408 126.075 7.77678ZM126.427 1.7608C126.192 1.97568 126.075 2.22589 126.075 2.51269V5.6275C126.075 6.60647 126.263 7.22758 126.638 7.49041C126.943 7.68132 127.295 7.77678 127.694 7.77678C128.397 7.77678 128.855 7.47863 129.066 6.88149C129.277 6.28477 129.383 5.44878 129.383 4.37476C129.383 3.41976 129.242 2.69141 128.961 2.19015C128.703 1.68931 128.21 1.43783 127.483 1.43783C127.014 1.43783 126.662 1.54549 126.427 1.7608ZM169.126 20.453L169.126 20.4536L169.127 20.4553L169.128 20.4568C169.199 20.5876 169.264 20.7077 169.325 20.8171L169.326 1.55929H168.831V1.13162H176.362V1.55929H174.25V26.7607H176.362V27.1876H163.202V26.7607H169.325V24.2687C169.325 21.8011 168.196 19.2738 164.864 16.6871C160.688 13.4361 158.6 9.75779 158.6 5.65265C158.6 4.98823 158.646 4.31244 158.74 3.62363C158.858 2.93524 159.046 2.24769 159.304 1.55971H157.333V1.13204H165.922V1.55971H165.427C164.302 3.76661 163.738 6.19891 163.738 8.85661C163.738 11.9651 164.513 14.386 166.061 16.1178C167.845 18.089 168.628 19.5338 169.126 20.453ZM11.0595 0.781305H17.1272L10.699 13.5904L17.4343 27.2082H11.4195L6.44368 16.114H5.92655V27.2082H0.710083V0.781305H5.92655V11.8902H6.00884L11.0595 0.781305ZM28.1346 0.781477H20.4653V27.2088H25.6813V19.8686L28.3706 19.8677C30.861 19.8181 32.7717 19.0704 34.2132 17.5805C35.8636 15.8719 36.0737 13.1087 36.0737 10.4611C36.0737 8.01908 35.849 4.95768 34.1284 3.14523C32.6217 1.5544 30.6609 0.781477 28.1346 0.781477ZM30.9947 10.4859C30.9947 12.3219 30.6546 13.8425 30.3359 14.2033C29.8196 14.7882 29.1408 15.0498 28.1346 15.0498H25.6813V5.59982H28.1504C29.0886 5.59982 29.7465 5.88536 30.2854 6.52623C30.7294 7.05399 30.9947 8.39713 30.9947 10.4859ZM67.3565 27.2084H62.1404V0.781133H79.0572V27.2084H73.8249V5.59948H67.3565V27.2084ZM82.0654 5.59982H86.9297V27.2083H92.1458V5.59982H97.0268V0.781477H82.0654V5.59982ZM186.728 24.8445C186.728 23.5636 186.163 22.6027 185.426 21.6183C185.127 21.2194 184.566 20.7052 183.879 20.0751C181.571 17.9597 177.839 14.539 177.839 9.80119C177.839 3.7339 182.188 1.86216 183.243 1.42692C184.299 0.968128 185.508 0.738525 186.868 0.738525C191.795 0.738525 194.681 2.30917 195.527 5.45089H190.249C189.545 2.69605 188.135 1.31885 185.883 1.31885C183.713 1.31885 182.152 2.8651 182.152 5.95846C182.152 6.48958 182.199 7.03374 182.293 7.58966C182.387 8.1456 182.528 8.72549 182.715 9.32936C183.771 9.20867 184.733 9.0514 185.601 8.85796C186.493 8.66494 187.313 8.43533 188.065 8.16956C189.542 7.66157 190.282 7.13046 190.282 6.57452L190.247 6.42944C191.138 6.57452 191.901 6.78016 192.534 7.04593C193.191 7.28731 193.52 7.63803 193.52 8.09724C193.52 9.01523 189.965 9.60691 182.856 9.8731C183.208 10.8638 184.405 13.0872 186.446 16.543C188.088 19.3462 188.909 21.5935 188.909 23.2852C188.909 24.8315 188.205 26.0035 186.798 26.8008C188.338 26.6578 189.738 25.7419 190.606 24.1486C192.331 20.9812 192.592 17.0367 191.595 12.4463L196.797 12.0476C197.155 13.3079 197.051 15.3113 196.716 17.0144C196.381 18.7171 195.788 20.1805 195.037 21.4135C194.294 22.632 193.61 23.3088 192.752 24.1574L192.722 24.1868C191.967 24.9341 191.02 25.6658 190.176 26.1486C189.331 26.6322 188.381 26.9825 187.325 27.1999C186.293 27.3933 185.131 27.49 183.841 27.49C180.978 27.49 179.548 27.1149 179.548 26.3664C179.548 26.2457 179.629 26.0998 179.794 25.9316C179.982 25.7381 180.205 25.641 180.463 25.641C180.748 25.5636 181.053 25.4815 181.378 25.3941C181.559 25.3452 181.747 25.2946 181.941 25.2423C182.48 25.0973 183.066 24.9404 183.701 24.7718C184.123 24.7718 184.334 24.892 184.334 25.1338C184.334 25.3033 184.276 25.5089 184.158 25.7499C184.041 25.9682 183.982 26.1368 183.982 26.2575C183.982 26.4269 184.053 26.5716 184.194 26.6923C184.358 26.7899 184.569 26.8374 184.827 26.8374C185.015 26.8374 185.155 26.826 185.249 26.8012C186.234 26.7053 186.728 26.0527 186.728 24.8445Z" fill="#FBFBFC"/>
<path d="M103.731 19.3556C103.731 20.392 104.048 21.2234 104.681 21.85C105.338 22.4525 106.218 22.7538 107.32 22.7538C108.423 22.7538 109.291 22.4525 109.924 21.85C110.581 21.2234 110.909 20.392 110.909 19.3556V8.83579C110.909 7.79947 110.581 6.98005 109.924 6.37754C109.291 5.75093 108.423 5.43763 107.32 5.43763C106.218 5.43763 105.338 5.75093 104.681 6.37754C104.048 6.98005 103.731 7.79947 103.731 8.83579V19.3556ZM98.4532 8.83579C98.4532 7.60666 98.6644 6.49804 99.0866 5.50993C99.5088 4.52181 100.107 3.67829 100.881 2.97938C101.655 2.25637 102.582 1.70206 103.661 1.31645C104.763 0.930841 105.983 0.738037 107.32 0.738037C108.657 0.738037 109.865 0.930841 110.944 1.31645C112.047 1.70206 112.985 2.25637 113.759 2.97938C114.533 3.67829 115.132 4.52181 115.554 5.50993C115.976 6.49804 116.187 7.60666 116.187 8.83579V19.3556C116.187 20.5607 115.964 21.6693 115.519 22.6815C115.096 23.6696 114.498 24.5252 113.724 25.2482C112.95 25.9471 112.012 26.5014 110.909 26.9111C109.83 27.2967 108.634 27.4895 107.32 27.4895C105.983 27.4895 104.763 27.2967 103.661 26.9111C102.582 26.5255 101.655 25.9833 100.881 25.2843C100.107 24.5613 99.5088 23.7058 99.0866 22.7176C98.6644 21.7054 98.4532 20.5848 98.4532 19.3556V8.83579Z" fill="#FBFBFC"/>
<path d="M39.4775 1.14941H44.2407V15.9502C44.2407 16.5744 44.2041 17.2706 44.1308 18.0389C44.0575 18.7831 43.9843 19.4793 43.911 20.1275C43.8377 20.7758 43.7644 21.3159 43.6911 21.7481C43.6423 22.1802 43.6178 22.3963 43.6178 22.3963H44.1308C44.1552 21.9401 44.1919 21.496 44.2407 21.0638C44.2896 20.6557 44.3507 20.2356 44.4239 19.8034C44.5216 19.3713 44.6316 18.9632 44.7537 18.579L50.5429 1.14941H57.2114V27.0778H52.4482V12.241C52.4482 11.5448 52.4726 10.8245 52.5215 10.0803C52.5948 9.33606 52.668 8.65184 52.7413 8.02764C52.8146 7.2834 52.9001 6.55116 52.9978 5.83092H52.4848C52.4604 6.21505 52.4238 6.62318 52.3749 7.05532C52.3261 7.41544 52.2528 7.82357 52.1551 8.27972C52.0818 8.73586 51.9719 9.19201 51.8253 9.64816L46.146 27.0778H39.4775V1.14941Z" fill="#FBFBFC"/>
</svg>
