<svg width="44" height="44" viewBox="0 0 44 44" fill="none" xmlns="http://www.w3.org/2000/svg">
<g filter="url(#filter0_d_1486_60824)">
<rect x="6" y="4" width="32" height="32" rx="4" fill="#0084FE"/>
<path d="M14.9375 12.9375H17.75V12H14V15.75H14.9375V12.9375Z" fill="white"/>
<path d="M26.25 12V12.9375H29.0625V15.75H30V12H26.25Z" fill="white"/>
<path d="M29.0625 27.0625H26.25V28H30V24.25H29.0625V27.0625Z" fill="white"/>
<path d="M14.9375 24.25H14V28H17.75V27.0625H14.9375V24.25Z" fill="white"/>
<path d="M15.9062 13.875V18.5625H20.5938V15.75H21.5312V14.8125H20.5938V13.875H15.9062ZM19.6562 17.625H16.8438V14.8125H19.6562V17.625Z" fill="white"/>
<path d="M28.0938 26.0625V21.375H26.2188V20.4375H25.2812V21.375H22.4688V22.3125H23.4062V23.25H22.4688V24.1875H23.4062V26.0625H28.0938ZM24.3438 22.3125H27.1562V25.125H24.3438V22.3125Z" fill="white"/>
<path d="M18.7188 20.4375H20.5938V19.5H15.9062V20.4375H17.7812V21.375H16.8438V22.3125H17.7812V24.1875H16.8438V25.125H17.7812V26.0625H22.4688V25.125H21.5312V24.1875H20.5938V25.125H18.7188V24.1875H19.6562V23.25H18.7188V20.4375Z" fill="white"/>
<path d="M17.7812 15.75H18.7188V16.6875H17.7812V15.75Z" fill="white"/>
<path d="M25.2812 15.75H26.2188V16.6875H25.2812V15.75Z" fill="white"/>
<path d="M26.2188 18.5625H28.0938V13.875H23.4062V18.5625H25.2812V19.5H26.2188V18.5625ZM24.3438 17.625V14.8125H27.1562V17.625H24.3438Z" fill="white"/>
<path d="M28.0938 20.4375V19.5C27.8669 19.5 26.4471 19.5 26.2188 19.5V20.4375H28.0938Z" fill="white"/>
<path d="M25.2812 23.25H26.2188V24.1875H25.2812V23.25Z" fill="white"/>
<path d="M21.5312 22.3125H22.4688V23.25H21.5312V22.3125Z" fill="white"/>
<path d="M19.6562 23.25H20.5938C20.5938 23.0232 20.5938 21.6034 20.5938 21.375H19.6562V23.25Z" fill="white"/>
<path d="M20.5938 20.4375H21.5312V21.375H20.5938V20.4375Z" fill="white"/>
<path d="M16.8438 22.3125H15.9062V24.1875H16.8438C16.8438 23.9607 16.8438 22.5409 16.8438 22.3125Z" fill="white"/>
<path d="M15.9062 25.125H16.8438V26.0625H15.9062V25.125Z" fill="white"/>
<path d="M21.5312 13.875H22.4688V14.8125H21.5312V13.875Z" fill="white"/>
<path d="M21.5312 17.625H22.4688C22.4688 17.3982 22.4688 15.9784 22.4688 15.75H21.5312V17.625Z" fill="white"/>
<path d="M22.4688 19.5V18.5625H21.5312V20.4375H25.2812V19.5H22.4688Z" fill="white"/>
</g>
<defs>
<filter id="filter0_d_1486_60824" x="0" y="0" width="44" height="44" filterUnits="userSpaceOnUse" color-interpolation-filters="sRGB">
<feFlood flood-opacity="0" result="BackgroundImageFix"/>
<feColorMatrix in="SourceAlpha" type="matrix" values="0 0 0 0 0 0 0 0 0 0 0 0 0 0 0 0 0 0 127 0" result="hardAlpha"/>
<feOffset dy="2"/>
<feGaussianBlur stdDeviation="3"/>
<feColorMatrix type="matrix" values="0 0 0 0 0.211765 0 0 0 0 0.227451 0 0 0 0 0.282353 0 0 0 0.08 0"/>
<feBlend mode="normal" in2="BackgroundImageFix" result="effect1_dropShadow_1486_60824"/>
<feBlend mode="normal" in="SourceGraphic" in2="effect1_dropShadow_1486_60824" result="shape"/>
</filter>
</defs>
</svg>
